<svg width="580" height="400" viewBox="0 0 590 407" fill="none" xmlns="http://www.w3.org/2000/svg">
<g clip-path="url(#clip0)">
<path opacity="0.1" d="M327.039 54.2707C289.978 54.3202 254.305 43.8283 220.184 32.1728C186.063 20.5174 152.205 7.46565 115.833 1.935C92.4416 -1.62006 65.842 -1.29327 47.557 11.6149C29.9562 24.0328 24.8593 44.5858 22.4002 63.5742C20.5509 77.8588 19.6981 92.8515 26.6244 105.918C31.4336 114.989 39.6639 122.465 45.4647 131.11C65.7131 161.185 53.5363 199.602 33.8581 230.375C24.6313 244.813 13.8229 258.652 6.84699 273.917C-0.128892 289.182 -2.98965 306.492 4.12506 321.559C11.1753 336.492 27.1004 347.33 44.1905 354.733C78.8964 369.795 119.304 373.023 158.626 374.266C245.668 377.024 332.879 371.399 419.857 365.774C452.044 363.695 484.375 361.6 515.898 355.574C533.4 352.232 551.422 347.271 563.832 336.398C579.583 322.594 582.806 300.055 571.343 283.854C552.121 256.681 501.436 251.557 487.652 222.156C480.052 205.97 486.606 187.407 496.259 171.806C516.964 138.33 552.602 108.344 553.202 70.9022C553.613 45.1899 535.08 20.1064 507.4 8.93124C478.386 -2.77372 438.826 0.236693 418.498 22.0523C397.596 44.5264 359.761 54.236 327.039 54.2707Z" fill="#71EFA3"/>
<path d="M492.095 319.54C492.095 319.54 486.001 315.524 479.962 318.381C479.962 318.381 481.822 321.956 489.467 321.619L492.095 319.54Z" fill="#71EFA3"/>
<path d="M515.333 42.2002H38.9301C37.8045 42.2002 36.725 42.6467 35.9291 43.4416C35.1332 44.2364 34.686 45.3145 34.686 46.4385V58.7872H519.577V46.4385C519.577 45.3145 519.13 44.2364 518.334 43.4416C517.538 42.6467 516.458 42.2002 515.333 42.2002Z" fill="#3F3D56"/>
<path d="M34.686 58.7872V336.676C34.686 338.943 35.5876 341.116 37.1925 342.719C38.7973 344.322 40.9739 345.222 43.2435 345.222H511.019C513.289 345.222 515.466 344.322 517.07 342.719C518.675 341.116 519.577 338.943 519.577 336.676V58.7872H34.686Z" fill="white"/>
<path opacity="0.8" d="M42.366 52.3505C43.4613 52.3505 44.3492 51.4638 44.3492 50.3699C44.3492 49.2761 43.4613 48.3894 42.366 48.3894C41.2707 48.3894 40.3828 49.2761 40.3828 50.3699C40.3828 51.4638 41.2707 52.3505 42.366 52.3505Z" fill="#FA5959"/>
<path opacity="0.8" d="M47.8197 52.3505C48.915 52.3505 49.8029 51.4638 49.8029 50.3699C49.8029 49.2761 48.915 48.3894 47.8197 48.3894C46.7245 48.3894 45.8365 49.2761 45.8365 50.3699C45.8365 51.4638 46.7245 52.3505 47.8197 52.3505Z" fill="#FED253"/>
<path opacity="0.8" d="M53.2735 52.3505C54.3688 52.3505 55.2567 51.4638 55.2567 50.3699C55.2567 49.2761 54.3688 48.3894 53.2735 48.3894C52.1782 48.3894 51.2903 49.2761 51.2903 50.3699C51.2903 51.4638 52.1782 52.3505 53.2735 52.3505Z" fill="#8CCF4D"/>
<path opacity="0.05" d="M469.457 105.122H79.7591V276.25H469.457V105.122Z" fill="black"/>
<path d="M466.482 106.419H82.7339V273.774H466.482V106.419Z" fill="#3F3D56"/>
<path d="M187.347 149.491C179.797 149.491 172.416 151.727 166.138 155.916C159.86 160.105 154.966 166.06 152.077 173.026C149.187 179.993 148.431 187.658 149.904 195.054C151.377 202.45 155.013 209.243 160.352 214.575C165.692 219.907 172.494 223.538 179.899 225.009C187.305 226.48 194.981 225.725 201.957 222.839C208.933 219.954 214.895 215.067 219.09 208.797C223.285 202.528 225.524 195.157 225.524 187.616C225.524 182.609 224.536 177.652 222.618 173.026C220.699 168.401 217.887 164.198 214.342 160.657C210.797 157.117 206.589 154.309 201.957 152.393C197.325 150.477 192.361 149.491 187.347 149.491ZM194.194 188.532V206.585H180.699V188.532C178.831 187.12 177.455 185.158 176.764 182.923C176.073 180.688 176.102 178.293 176.848 176.075C177.594 173.858 179.018 171.93 180.919 170.565C182.821 169.199 185.104 168.465 187.447 168.465C189.789 168.465 192.072 169.199 193.974 170.565C195.875 171.93 197.3 173.858 198.045 176.075C198.791 178.293 198.82 180.688 198.129 182.923C197.438 185.158 196.062 187.12 194.194 188.532Z" fill="#71EFA3"/>
<path opacity="0.05" d="M187.347 149.491C179.797 149.491 172.416 151.727 166.138 155.916C159.86 160.105 154.966 166.06 152.077 173.026C149.187 179.993 148.431 187.658 149.904 195.054C151.377 202.45 155.013 209.243 160.352 214.575C165.692 219.907 172.494 223.538 179.899 225.009C187.305 226.48 194.981 225.725 201.957 222.839C208.933 219.954 214.895 215.067 219.09 208.797C223.285 202.528 225.524 195.157 225.524 187.616C225.524 182.609 224.536 177.652 222.618 173.026C220.699 168.401 217.887 164.198 214.342 160.657C210.797 157.117 206.589 154.309 201.957 152.393C197.325 150.477 192.361 149.491 187.347 149.491ZM194.194 188.532V206.585H180.699V188.532C178.831 187.12 177.455 185.158 176.764 182.923C176.073 180.688 176.102 178.293 176.848 176.075C177.594 173.858 179.018 171.93 180.919 170.565C182.821 169.199 185.104 168.465 187.447 168.465C189.789 168.465 192.072 169.199 193.974 170.565C195.875 171.93 197.3 173.858 198.045 176.075C198.791 178.293 198.82 180.688 198.129 182.923C197.438 185.158 196.062 187.12 194.194 188.532Z" fill="black"/>
<path d="M187.347 138.598C177.639 138.598 168.15 141.473 160.078 146.859C152.006 152.245 145.715 159.901 142 168.858C138.285 177.815 137.313 187.671 139.206 197.179C141.1 206.688 145.775 215.422 152.64 222.277C159.504 229.133 168.25 233.801 177.771 235.693C187.293 237.584 197.162 236.613 206.131 232.903C215.1 229.193 222.766 222.91 228.159 214.849C233.553 206.788 236.431 197.311 236.431 187.616C236.431 174.616 231.26 162.148 222.055 152.955C212.85 143.762 200.365 138.598 187.347 138.598ZM196.148 188.795V212.002H178.795V188.795C176.393 186.979 174.622 184.456 173.733 181.582C172.844 178.707 172.882 175.627 173.841 172.775C174.8 169.923 176.631 167.444 179.077 165.687C181.523 163.931 184.459 162.986 187.471 162.986C190.484 162.986 193.42 163.931 195.866 165.687C198.311 167.444 200.143 169.923 201.102 172.775C202.06 175.627 202.098 178.707 201.209 181.582C200.32 184.456 198.55 186.979 196.148 188.795Z" fill="#71EFA3"/>
<path d="M415.415 181.184H256.759V198.019H415.415V181.184Z" fill="white"/>
<path d="M415.415 211.883H381.204V228.717H415.415V211.883Z" fill="#71EFA3"/>
<path d="M272.377 189.349H269.506L272.059 186.804C272.105 186.757 272.131 186.694 272.131 186.628C272.131 186.563 272.105 186.5 272.059 186.453C272.036 186.429 272.009 186.411 271.979 186.398C271.949 186.386 271.916 186.379 271.883 186.379C271.851 186.379 271.818 186.386 271.788 186.398C271.758 186.411 271.73 186.429 271.707 186.453L269.154 189.003V186.131C269.154 186.065 269.128 186.002 269.081 185.956C269.035 185.909 268.972 185.883 268.906 185.883C268.841 185.884 268.778 185.911 268.732 185.957C268.686 186.003 268.66 186.065 268.658 186.131V189.003L266.11 186.438C266.087 186.415 266.059 186.396 266.029 186.384C265.999 186.371 265.967 186.365 265.934 186.365C265.901 186.365 265.869 186.371 265.839 186.384C265.808 186.396 265.781 186.415 265.758 186.438C265.712 186.485 265.687 186.548 265.687 186.614C265.687 186.679 265.712 186.742 265.758 186.789L268.311 189.334H265.436C265.37 189.336 265.308 189.362 265.262 189.408C265.215 189.454 265.189 189.517 265.188 189.582C265.188 189.647 265.214 189.71 265.26 189.757C265.307 189.803 265.37 189.829 265.436 189.829H268.311L265.758 192.379C265.712 192.426 265.687 192.49 265.687 192.555C265.687 192.621 265.712 192.684 265.758 192.731C265.806 192.775 265.868 192.8 265.934 192.8C265.999 192.8 266.062 192.775 266.11 192.731L268.658 190.181V193.048C268.658 193.113 268.684 193.176 268.731 193.223C268.777 193.269 268.84 193.295 268.906 193.295C268.972 193.295 269.035 193.269 269.081 193.223C269.128 193.176 269.154 193.113 269.154 193.048V190.181L271.707 192.731C271.755 192.775 271.818 192.8 271.883 192.8C271.949 192.8 272.012 192.775 272.059 192.731C272.105 192.684 272.131 192.621 272.131 192.555C272.131 192.49 272.105 192.426 272.059 192.379L269.506 189.829H272.377C272.442 189.829 272.506 189.803 272.552 189.757C272.598 189.71 272.625 189.647 272.625 189.582C272.621 189.519 272.593 189.46 272.547 189.416C272.501 189.373 272.44 189.349 272.377 189.349Z" fill="#71EFA3"/>
<path d="M282.789 189.349H279.918L282.471 186.804C282.517 186.757 282.543 186.694 282.543 186.628C282.543 186.563 282.517 186.5 282.471 186.453C282.448 186.429 282.421 186.411 282.391 186.398C282.36 186.386 282.328 186.379 282.295 186.379C282.262 186.379 282.23 186.386 282.2 186.398C282.17 186.411 282.142 186.429 282.119 186.453L279.566 189.003V186.131C279.566 186.065 279.54 186.002 279.493 185.956C279.447 185.909 279.384 185.883 279.318 185.883C279.253 185.884 279.19 185.911 279.144 185.957C279.098 186.003 279.071 186.065 279.07 186.131V189.003L276.522 186.438C276.499 186.415 276.471 186.396 276.441 186.384C276.411 186.371 276.378 186.365 276.346 186.365C276.313 186.365 276.28 186.371 276.25 186.384C276.22 186.396 276.193 186.415 276.17 186.438C276.124 186.485 276.098 186.548 276.098 186.614C276.098 186.679 276.124 186.742 276.17 186.789L278.723 189.334H275.847C275.782 189.336 275.72 189.362 275.673 189.408C275.627 189.454 275.601 189.517 275.599 189.582C275.599 189.647 275.626 189.71 275.672 189.757C275.719 189.803 275.782 189.829 275.847 189.829H278.723L276.17 192.379C276.124 192.426 276.098 192.49 276.098 192.555C276.098 192.621 276.124 192.684 276.17 192.731C276.217 192.775 276.28 192.8 276.346 192.8C276.411 192.8 276.474 192.775 276.522 192.731L279.07 190.181V193.048C279.07 193.113 279.096 193.176 279.143 193.223C279.189 193.269 279.252 193.295 279.318 193.295C279.384 193.295 279.447 193.269 279.493 193.223C279.54 193.176 279.566 193.113 279.566 193.048V190.181L282.119 192.731C282.167 192.775 282.23 192.8 282.295 192.8C282.361 192.8 282.423 192.775 282.471 192.731C282.517 192.684 282.543 192.621 282.543 192.555C282.543 192.49 282.517 192.426 282.471 192.379L279.918 189.829H282.789C282.854 189.829 282.917 189.803 282.964 189.757C283.01 189.71 283.036 189.647 283.036 189.582C283.033 189.519 283.005 189.46 282.959 189.416C282.913 189.373 282.852 189.349 282.789 189.349Z" fill="#71EFA3"/>
<path d="M293.2 189.349H290.33L292.883 186.804C292.929 186.757 292.954 186.694 292.954 186.628C292.954 186.563 292.929 186.5 292.883 186.453C292.86 186.429 292.832 186.411 292.802 186.398C292.772 186.386 292.74 186.379 292.707 186.379C292.674 186.379 292.642 186.386 292.612 186.398C292.581 186.411 292.554 186.429 292.531 186.453L289.978 189.003V186.131C289.978 186.065 289.951 186.002 289.905 185.956C289.858 185.909 289.795 185.883 289.73 185.883C289.664 185.884 289.602 185.911 289.556 185.957C289.51 186.003 289.483 186.065 289.482 186.131V189.003L286.933 186.438C286.91 186.415 286.883 186.396 286.853 186.384C286.822 186.371 286.79 186.365 286.757 186.365C286.725 186.365 286.692 186.371 286.662 186.384C286.632 186.396 286.604 186.415 286.581 186.438C286.536 186.485 286.51 186.548 286.51 186.614C286.51 186.679 286.536 186.742 286.581 186.789L289.135 189.334H286.259C286.194 189.336 286.131 189.362 286.085 189.408C286.039 189.454 286.012 189.517 286.011 189.582C286.011 189.647 286.037 189.71 286.084 189.757C286.13 189.803 286.193 189.829 286.259 189.829H289.135L286.581 192.379C286.536 192.426 286.51 192.49 286.51 192.555C286.51 192.621 286.536 192.684 286.581 192.731C286.629 192.775 286.692 192.8 286.757 192.8C286.823 192.8 286.886 192.775 286.933 192.731L289.482 190.181V193.048C289.482 193.113 289.508 193.176 289.554 193.223C289.601 193.269 289.664 193.295 289.73 193.295C289.795 193.295 289.858 193.269 289.905 193.223C289.951 193.176 289.978 193.113 289.978 193.048V190.181L292.531 192.731C292.579 192.775 292.642 192.8 292.707 192.8C292.772 192.8 292.835 192.775 292.883 192.731C292.929 192.684 292.954 192.621 292.954 192.555C292.954 192.49 292.929 192.426 292.883 192.379L290.33 189.829H293.2C293.266 189.829 293.329 189.803 293.375 189.757C293.422 189.71 293.448 189.647 293.448 189.582C293.444 189.519 293.417 189.46 293.37 189.416C293.324 189.373 293.263 189.349 293.2 189.349Z" fill="#71EFA3"/>
<path d="M303.612 189.349H300.741L303.295 186.804C303.34 186.757 303.366 186.694 303.366 186.628C303.366 186.563 303.34 186.5 303.295 186.453C303.272 186.429 303.244 186.411 303.214 186.398C303.184 186.386 303.151 186.379 303.119 186.379C303.086 186.379 303.054 186.386 303.023 186.398C302.993 186.411 302.966 186.429 302.943 186.453L300.389 189.003V186.131C300.389 186.065 300.363 186.002 300.317 185.956C300.27 185.909 300.207 185.883 300.141 185.883C300.076 185.884 300.014 185.911 299.968 185.957C299.921 186.003 299.895 186.065 299.894 186.131V189.003L297.345 186.438C297.322 186.415 297.295 186.396 297.264 186.384C297.234 186.371 297.202 186.365 297.169 186.365C297.136 186.365 297.104 186.371 297.074 186.384C297.044 186.396 297.016 186.415 296.993 186.438C296.947 186.485 296.922 186.548 296.922 186.614C296.922 186.679 296.947 186.742 296.993 186.789L299.546 189.334H296.671C296.605 189.336 296.543 189.362 296.497 189.408C296.451 189.454 296.424 189.517 296.423 189.582C296.423 189.647 296.449 189.71 296.496 189.757C296.542 189.803 296.605 189.829 296.671 189.829H299.546L296.993 192.379C296.947 192.426 296.922 192.49 296.922 192.555C296.922 192.621 296.947 192.684 296.993 192.731C297.041 192.775 297.104 192.8 297.169 192.8C297.234 192.8 297.297 192.775 297.345 192.731L299.894 190.181V193.048C299.894 193.113 299.92 193.176 299.966 193.223C300.013 193.269 300.076 193.295 300.141 193.295C300.207 193.295 300.27 193.269 300.317 193.223C300.363 193.176 300.389 193.113 300.389 193.048V190.181L302.943 192.731C302.99 192.775 303.053 192.8 303.119 192.8C303.184 192.8 303.247 192.775 303.295 192.731C303.34 192.684 303.366 192.621 303.366 192.555C303.366 192.49 303.34 192.426 303.295 192.379L300.741 189.829H303.612C303.678 189.829 303.741 189.803 303.787 189.757C303.834 189.71 303.86 189.647 303.86 189.582C303.856 189.519 303.828 189.46 303.782 189.416C303.736 189.373 303.675 189.349 303.612 189.349Z" fill="#71EFA3"/>
<path d="M314.024 189.349H311.153L313.706 186.804C313.752 186.757 313.778 186.694 313.778 186.628C313.778 186.563 313.752 186.5 313.706 186.453C313.683 186.429 313.656 186.411 313.626 186.398C313.596 186.386 313.563 186.379 313.53 186.379C313.498 186.379 313.465 186.386 313.435 186.398C313.405 186.411 313.377 186.429 313.354 186.453L310.801 189.003V186.131C310.801 186.065 310.775 186.002 310.728 185.956C310.682 185.909 310.619 185.883 310.553 185.883C310.488 185.884 310.426 185.911 310.379 185.957C310.333 186.003 310.307 186.065 310.305 186.131V189.003L307.757 186.438C307.734 186.415 307.706 186.396 307.676 186.384C307.646 186.371 307.614 186.365 307.581 186.365C307.548 186.365 307.516 186.371 307.486 186.384C307.455 186.396 307.428 186.415 307.405 186.438C307.359 186.485 307.334 186.548 307.334 186.614C307.334 186.679 307.359 186.742 307.405 186.789L309.958 189.334H307.083C307.017 189.336 306.955 189.362 306.909 189.408C306.863 189.454 306.836 189.517 306.835 189.582C306.835 189.647 306.861 189.71 306.907 189.757C306.954 189.803 307.017 189.829 307.083 189.829H309.958L307.405 192.379C307.359 192.426 307.334 192.49 307.334 192.555C307.334 192.621 307.359 192.684 307.405 192.731C307.453 192.775 307.516 192.8 307.581 192.8C307.646 192.8 307.709 192.775 307.757 192.731L310.305 190.181V193.048C310.305 193.113 310.331 193.176 310.378 193.223C310.424 193.269 310.487 193.295 310.553 193.295C310.619 193.295 310.682 193.269 310.728 193.223C310.775 193.176 310.801 193.113 310.801 193.048V190.181L313.354 192.731C313.402 192.775 313.465 192.8 313.53 192.8C313.596 192.8 313.659 192.775 313.706 192.731C313.752 192.684 313.778 192.621 313.778 192.555C313.778 192.49 313.752 192.426 313.706 192.379L311.153 189.829H314.024C314.09 189.829 314.153 189.803 314.199 189.757C314.246 189.71 314.272 189.647 314.272 189.582C314.268 189.519 314.24 189.46 314.194 189.416C314.148 189.373 314.087 189.349 314.024 189.349Z" fill="#71EFA3"/>
<path d="M324.436 189.349H321.565L324.118 186.804C324.164 186.757 324.19 186.694 324.19 186.628C324.19 186.563 324.164 186.5 324.118 186.453C324.095 186.429 324.068 186.411 324.038 186.398C324.007 186.386 323.975 186.379 323.942 186.379C323.909 186.379 323.877 186.386 323.847 186.398C323.817 186.411 323.789 186.429 323.766 186.453L321.213 189.003V186.131C321.213 186.065 321.187 186.002 321.14 185.956C321.094 185.909 321.031 185.883 320.965 185.883C320.9 185.884 320.837 185.911 320.791 185.957C320.745 186.003 320.718 186.065 320.717 186.131V189.003L318.169 186.438C318.146 186.415 318.118 186.396 318.088 186.384C318.058 186.371 318.025 186.365 317.993 186.365C317.96 186.365 317.928 186.371 317.897 186.384C317.867 186.396 317.84 186.415 317.817 186.438C317.771 186.485 317.745 186.548 317.745 186.614C317.745 186.679 317.771 186.742 317.817 186.789L320.37 189.334H317.494C317.429 189.336 317.367 189.362 317.32 189.408C317.274 189.454 317.248 189.517 317.246 189.582C317.246 189.647 317.273 189.71 317.319 189.757C317.366 189.803 317.429 189.829 317.494 189.829H320.37L317.817 192.379C317.771 192.426 317.745 192.49 317.745 192.555C317.745 192.621 317.771 192.684 317.817 192.731C317.864 192.775 317.927 192.8 317.993 192.8C318.058 192.8 318.121 192.775 318.169 192.731L320.717 190.181V193.048C320.717 193.113 320.743 193.176 320.79 193.223C320.836 193.269 320.899 193.295 320.965 193.295C321.031 193.295 321.094 193.269 321.14 193.223C321.187 193.176 321.213 193.113 321.213 193.048V190.181L323.766 192.731C323.814 192.775 323.877 192.8 323.942 192.8C324.008 192.8 324.07 192.775 324.118 192.731C324.164 192.684 324.19 192.621 324.19 192.555C324.19 192.49 324.164 192.426 324.118 192.379L321.565 189.829H324.436C324.501 189.829 324.564 189.803 324.611 189.757C324.657 189.71 324.683 189.647 324.683 189.582C324.68 189.519 324.652 189.46 324.606 189.416C324.56 189.373 324.499 189.349 324.436 189.349Z" fill="#71EFA3"/>
<path d="M334.847 189.349H331.977L334.53 186.804C334.576 186.757 334.601 186.694 334.601 186.628C334.601 186.563 334.576 186.5 334.53 186.453C334.507 186.429 334.479 186.411 334.449 186.398C334.419 186.386 334.387 186.379 334.354 186.379C334.321 186.379 334.289 186.386 334.259 186.398C334.228 186.411 334.201 186.429 334.178 186.453L331.625 189.003V186.131C331.625 186.065 331.598 186.002 331.552 185.956C331.505 185.909 331.442 185.883 331.377 185.883C331.311 185.884 331.249 185.911 331.203 185.957C331.157 186.003 331.13 186.065 331.129 186.131V189.003L328.58 186.438C328.557 186.415 328.53 186.396 328.5 186.384C328.47 186.371 328.437 186.365 328.404 186.365C328.372 186.365 328.339 186.371 328.309 186.384C328.279 186.396 328.251 186.415 328.228 186.438C328.183 186.485 328.157 186.548 328.157 186.614C328.157 186.679 328.183 186.742 328.228 186.789L330.782 189.334H327.906C327.841 189.336 327.778 189.362 327.732 189.408C327.686 189.454 327.66 189.517 327.658 189.582C327.658 189.647 327.684 189.71 327.731 189.757C327.777 189.803 327.84 189.829 327.906 189.829H330.782L328.228 192.379C328.183 192.426 328.157 192.49 328.157 192.555C328.157 192.621 328.183 192.684 328.228 192.731C328.276 192.775 328.339 192.8 328.404 192.8C328.47 192.8 328.533 192.775 328.58 192.731L331.129 190.181V193.048C331.129 193.113 331.155 193.176 331.201 193.223C331.248 193.269 331.311 193.295 331.377 193.295C331.442 193.295 331.505 193.269 331.552 193.223C331.598 193.176 331.625 193.113 331.625 193.048V190.181L334.178 192.731C334.226 192.775 334.289 192.8 334.354 192.8C334.419 192.8 334.482 192.775 334.53 192.731C334.576 192.684 334.601 192.621 334.601 192.555C334.601 192.49 334.576 192.426 334.53 192.379L331.977 189.829H334.847C334.913 189.829 334.976 189.803 335.023 189.757C335.069 189.71 335.095 189.647 335.095 189.582C335.091 189.519 335.064 189.46 335.017 189.416C334.971 189.373 334.911 189.349 334.847 189.349Z" fill="#71EFA3"/>
<path d="M345.259 189.349H342.388L344.942 186.804C344.988 186.757 345.013 186.694 345.013 186.628C345.013 186.563 344.988 186.5 344.942 186.453C344.919 186.429 344.891 186.411 344.861 186.398C344.831 186.386 344.798 186.379 344.766 186.379C344.733 186.379 344.701 186.386 344.67 186.398C344.64 186.411 344.613 186.429 344.59 186.453L342.036 189.003V186.131C342.036 186.065 342.01 186.002 341.964 185.956C341.917 185.909 341.854 185.883 341.788 185.883C341.723 185.884 341.661 185.911 341.615 185.957C341.568 186.003 341.542 186.065 341.541 186.131V189.003L338.992 186.438C338.969 186.415 338.942 186.396 338.911 186.384C338.881 186.371 338.849 186.365 338.816 186.365C338.783 186.365 338.751 186.371 338.721 186.384C338.691 186.396 338.663 186.415 338.64 186.438C338.594 186.485 338.569 186.548 338.569 186.614C338.569 186.679 338.594 186.742 338.64 186.789L341.194 189.334H338.318C338.253 189.336 338.19 189.362 338.144 189.408C338.098 189.454 338.071 189.517 338.07 189.582C338.07 189.647 338.096 189.71 338.143 189.757C338.189 189.803 338.252 189.829 338.318 189.829H341.194L338.64 192.379C338.594 192.426 338.569 192.49 338.569 192.555C338.569 192.621 338.594 192.684 338.64 192.731C338.688 192.775 338.751 192.8 338.816 192.8C338.881 192.8 338.944 192.775 338.992 192.731L341.541 190.181V193.048C341.541 193.113 341.567 193.176 341.613 193.223C341.66 193.269 341.723 193.295 341.788 193.295C341.854 193.295 341.917 193.269 341.964 193.223C342.01 193.176 342.036 193.113 342.036 193.048V190.181L344.59 192.731C344.638 192.775 344.7 192.8 344.766 192.8C344.831 192.8 344.894 192.775 344.942 192.731C344.988 192.684 345.013 192.621 345.013 192.555C345.013 192.49 344.988 192.426 344.942 192.379L342.388 189.829H345.259C345.325 189.829 345.388 189.803 345.434 189.757C345.481 189.71 345.507 189.647 345.507 189.582C345.503 189.519 345.475 189.46 345.429 189.416C345.383 189.373 345.322 189.349 345.259 189.349Z" fill="#71EFA3"/>
<path d="M355.671 189.349H352.8L355.354 186.804C355.399 186.757 355.425 186.694 355.425 186.628C355.425 186.563 355.399 186.5 355.354 186.453C355.33 186.429 355.303 186.411 355.273 186.398C355.243 186.386 355.21 186.379 355.178 186.379C355.145 186.379 355.112 186.386 355.082 186.398C355.052 186.411 355.025 186.429 355.002 186.453L352.448 189.003V186.131C352.448 186.065 352.422 186.002 352.376 185.956C352.329 185.909 352.266 185.883 352.2 185.883C352.135 185.884 352.073 185.911 352.026 185.957C351.98 186.003 351.954 186.065 351.952 186.131V189.003L349.404 186.438C349.381 186.415 349.353 186.396 349.323 186.384C349.293 186.371 349.261 186.365 349.228 186.365C349.195 186.365 349.163 186.371 349.133 186.384C349.102 186.396 349.075 186.415 349.052 186.438C349.006 186.485 348.981 186.548 348.981 186.614C348.981 186.679 349.006 186.742 349.052 186.789L351.605 189.334H348.73C348.664 189.336 348.602 189.362 348.556 189.408C348.51 189.454 348.483 189.517 348.482 189.582C348.482 189.647 348.508 189.71 348.554 189.757C348.601 189.803 348.664 189.829 348.73 189.829H351.605L349.052 192.379C349.006 192.426 348.981 192.49 348.981 192.555C348.981 192.621 349.006 192.684 349.052 192.731C349.1 192.775 349.163 192.8 349.228 192.8C349.293 192.8 349.356 192.775 349.404 192.731L351.952 190.181V193.048C351.952 193.113 351.978 193.176 352.025 193.223C352.071 193.269 352.135 193.295 352.2 193.295C352.266 193.295 352.329 193.269 352.376 193.223C352.422 193.176 352.448 193.113 352.448 193.048V190.181L355.002 192.731C355.049 192.775 355.112 192.8 355.178 192.8C355.243 192.8 355.306 192.775 355.354 192.731C355.399 192.684 355.425 192.621 355.425 192.555C355.425 192.49 355.399 192.426 355.354 192.379L352.8 189.829H355.671C355.737 189.829 355.8 189.803 355.846 189.757C355.893 189.71 355.919 189.647 355.919 189.582C355.915 189.519 355.887 189.46 355.841 189.416C355.795 189.373 355.734 189.349 355.671 189.349Z" fill="#71EFA3"/>
<path d="M366.083 189.349H363.212L365.765 186.804C365.811 186.757 365.837 186.694 365.837 186.628C365.837 186.563 365.811 186.5 365.765 186.453C365.742 186.429 365.715 186.411 365.685 186.398C365.654 186.386 365.622 186.379 365.589 186.379C365.557 186.379 365.524 186.386 365.494 186.398C365.464 186.411 365.436 186.429 365.413 186.453L362.86 189.003V186.131C362.86 186.065 362.834 186.002 362.787 185.956C362.741 185.909 362.678 185.883 362.612 185.883C362.547 185.884 362.484 185.911 362.438 185.957C362.392 186.003 362.365 186.065 362.364 186.131V189.003L359.816 186.438C359.793 186.415 359.765 186.396 359.735 186.384C359.705 186.371 359.672 186.365 359.64 186.365C359.607 186.365 359.575 186.371 359.544 186.384C359.514 186.396 359.487 186.415 359.464 186.438C359.418 186.485 359.392 186.548 359.392 186.614C359.392 186.679 359.418 186.742 359.464 186.789L362.017 189.334H359.141C359.076 189.336 359.014 189.362 358.968 189.408C358.921 189.454 358.895 189.517 358.894 189.582C358.894 189.647 358.92 189.71 358.966 189.757C359.013 189.803 359.076 189.829 359.141 189.829H362.017L359.464 192.379C359.418 192.426 359.392 192.49 359.392 192.555C359.392 192.621 359.418 192.684 359.464 192.731C359.511 192.775 359.574 192.8 359.64 192.8C359.705 192.8 359.768 192.775 359.816 192.731L362.364 190.181V193.048C362.364 193.113 362.39 193.176 362.437 193.223C362.483 193.269 362.546 193.295 362.612 193.295C362.678 193.295 362.741 193.269 362.787 193.223C362.834 193.176 362.86 193.113 362.86 193.048V190.181L365.413 192.731C365.461 192.775 365.524 192.8 365.589 192.8C365.655 192.8 365.718 192.775 365.765 192.731C365.811 192.684 365.837 192.621 365.837 192.555C365.837 192.49 365.811 192.426 365.765 192.379L363.212 189.829H366.083C366.148 189.829 366.211 189.803 366.258 189.757C366.304 189.71 366.331 189.647 366.331 189.582C366.327 189.519 366.299 189.46 366.253 189.416C366.207 189.373 366.146 189.349 366.083 189.349Z" fill="#71EFA3"/>
<path d="M376.494 189.349H373.624L376.177 186.804C376.223 186.757 376.248 186.694 376.248 186.628C376.248 186.563 376.223 186.5 376.177 186.453C376.154 186.429 376.127 186.411 376.096 186.398C376.066 186.386 376.034 186.379 376.001 186.379C375.968 186.379 375.936 186.386 375.906 186.398C375.876 186.411 375.848 186.429 375.825 186.453L373.272 189.003V186.131C373.272 186.065 373.246 186.002 373.199 185.956C373.153 185.909 373.09 185.883 373.024 185.883C372.958 185.884 372.896 185.911 372.85 185.957C372.804 186.003 372.777 186.065 372.776 186.131V189.003L370.228 186.438C370.204 186.415 370.177 186.396 370.147 186.384C370.117 186.371 370.084 186.365 370.051 186.365C370.019 186.365 369.986 186.371 369.956 186.384C369.926 186.396 369.899 186.415 369.875 186.438C369.83 186.485 369.804 186.548 369.804 186.614C369.804 186.679 369.83 186.742 369.875 186.789L372.429 189.334H369.553C369.488 189.336 369.426 189.362 369.379 189.408C369.333 189.454 369.307 189.517 369.305 189.582C369.305 189.647 369.331 189.71 369.378 189.757C369.424 189.803 369.487 189.829 369.553 189.829H372.429L369.875 192.379C369.83 192.426 369.804 192.49 369.804 192.555C369.804 192.621 369.83 192.684 369.875 192.731C369.923 192.775 369.986 192.8 370.051 192.8C370.117 192.8 370.18 192.775 370.228 192.731L372.776 190.181V193.048C372.776 193.113 372.802 193.176 372.849 193.223C372.895 193.269 372.958 193.295 373.024 193.295C373.09 193.295 373.153 193.269 373.199 193.223C373.246 193.176 373.272 193.113 373.272 193.048V190.181L375.825 192.731C375.873 192.775 375.936 192.8 376.001 192.8C376.066 192.8 376.129 192.775 376.177 192.731C376.223 192.684 376.248 192.621 376.248 192.555C376.248 192.49 376.223 192.426 376.177 192.379L373.624 189.829H376.494C376.56 189.829 376.623 189.803 376.67 189.757C376.716 189.71 376.742 189.647 376.742 189.582C376.739 189.519 376.711 189.46 376.665 189.416C376.619 189.373 376.558 189.349 376.494 189.349Z" fill="#71EFA3"/>
<path d="M456.313 249.582C456.299 248.984 456.224 248.388 456.09 247.805C455.644 246.131 454.637 244.106 452.981 243.601C451.271 243.078 449.62 242.381 448.053 241.521C447.755 236.213 448.975 230.782 447.646 225.637C447.151 223.756 446.332 221.954 446.114 220.028C445.842 217.631 446.496 215.076 445.539 212.868C444.786 211.125 443.13 209.897 441.35 209.253C439.57 208.61 437.651 208.436 435.762 208.263C433.382 208.07 425.678 207.159 422.99 209.283C422.805 209.427 422.638 209.593 422.495 209.778C422.435 209.86 422.382 209.946 422.336 210.036L422.311 210.075C422.257 210.179 422.212 210.286 422.177 210.397C422.14 210.519 422.112 210.643 422.093 210.769C422.093 210.808 422.093 210.848 422.093 210.887C422.093 210.927 422.093 211.061 422.093 211.15V211.283C422.093 211.373 422.093 211.462 422.093 211.556C422.093 211.65 422.093 211.625 422.093 211.66C422.128 212.105 422.192 212.551 422.192 212.992C422.197 213.211 422.177 213.43 422.133 213.645C421.967 214.229 421.688 214.775 421.31 215.249L421.22 215.378C421.166 215.457 421.111 215.532 421.062 215.611C421.012 215.69 420.972 215.75 420.933 215.819C420.893 215.888 420.853 215.933 420.819 215.997C420.771 216.079 420.728 216.163 420.69 216.25C420.69 216.299 420.635 216.344 420.615 216.393C420.553 216.527 420.504 216.666 420.467 216.809C420.351 217.239 420.34 217.691 420.437 218.126C420.571 218.682 420.801 219.209 421.116 219.686C421.24 219.889 421.374 220.087 421.513 220.285L421.86 220.755C421.795 221.215 421.76 221.678 421.756 222.142C421.756 223.692 422.109 225.222 422.787 226.617C423.466 228.012 424.452 229.234 425.673 230.193C425.869 232.284 425.847 234.389 425.608 236.476C425.564 236.912 425.509 237.352 425.449 237.788C425.39 238.224 425.345 238.511 425.286 238.872C424.56 238.976 423.821 238.92 423.119 238.709C422.796 238.565 422.465 238.437 422.128 238.328C420.685 237.966 419.212 239.402 417.784 238.966C417.784 239.036 417.745 239.1 417.72 239.164C417.422 238.979 417.079 238.879 416.728 238.872C415.881 238.833 415.191 238.219 414.577 237.639L412.688 235.862C412.564 235.753 412.455 235.63 412.36 235.496C412.259 235.303 412.182 235.098 412.132 234.886C411.815 233.862 411.047 233.045 410.303 232.267C410.162 232.09 409.975 231.955 409.762 231.876C409.68 231.864 409.597 231.864 409.515 231.876C409.464 231.807 409.409 231.741 409.351 231.678C409.223 231.531 409.085 231.392 408.939 231.262C408.037 230.43 407.948 229.717 407.164 228.786C406.481 227.899 405.862 226.964 405.31 225.989C405.246 225.469 405.156 224.934 405.047 224.395C404.797 223.159 404.434 221.949 403.962 220.78L402.97 218.587L402.856 218.701C402.137 217.631 401.369 217.047 400.679 217.185C399.524 217.423 398.954 219.661 399.137 222.587L399.534 225.558C399.534 225.632 399.569 225.707 399.589 225.781C399.517 226.133 399.481 226.491 399.48 226.85C399.48 227.266 399.866 227.573 400.07 227.945C400.395 228.448 400.567 229.034 400.565 229.633C400.541 229.846 400.476 230.049 400.466 230.257C400.493 230.722 400.655 231.169 400.932 231.544L403.411 235.703L403.907 236.575L403.937 236.615C404.093 236.919 404.321 237.18 404.601 237.377C404.698 238.418 404.975 239.435 405.419 240.382C405.504 240.571 405.598 240.749 405.697 240.927C406.363 242.021 407.148 243.039 408.037 243.962L409.217 245.284C410.382 246.582 411.547 247.884 412.812 249.082C413.264 249.563 413.811 249.945 414.418 250.206C414.715 250.325 415.039 250.363 415.356 250.317C415.672 250.271 415.972 250.142 416.223 249.944C416.223 250.557 416.223 251.171 416.223 251.785C416.407 251.797 416.584 251.857 416.737 251.96C416.891 252.063 417.013 252.204 417.093 252.37C417.173 252.536 417.207 252.721 417.192 252.904C417.176 253.088 417.112 253.264 417.006 253.414C415.965 256.083 414.914 258.777 413.337 261.168C414.45 261.826 415.482 262.612 416.411 263.51C417.014 264.178 417.551 264.902 418.013 265.674C418.057 266.04 418.092 266.402 418.112 266.763C418.479 272.665 416.193 278.523 414.145 284.147C413.555 285.742 412.911 287.41 412.96 289.069C412.572 289.308 412.201 289.575 411.85 289.866C412.256 290.926 412.098 291.871 412.053 293.005C412.038 293.685 411.899 294.356 411.641 294.986C411.426 295.422 411.188 295.847 410.928 296.258C409.643 298.521 409.361 301.21 409.103 303.794C408.949 305.354 409.554 307.26 408.845 308.657C407.621 311.053 406.535 313.608 406.366 316.272C406.36 316.871 406.284 317.468 406.138 318.049C405.984 318.544 405.712 318.965 405.573 319.45C405.43 320.101 405.397 320.77 405.474 321.431C405.568 323.804 405.215 326.174 404.433 328.417C403.813 330.185 403.129 332.076 403.615 333.893C402.418 335.148 401.68 336.768 401.517 338.493C401.505 338.935 401.451 339.374 401.359 339.805C401.207 340.247 401.008 340.67 400.764 341.068C399.766 342.883 399.298 344.942 399.415 347.01C397.928 349.025 397.184 351.51 396.743 353.981C396.301 356.452 396.108 358.967 395.543 361.408C394.789 364.636 393.426 367.899 393.158 371.207C391.552 372.232 390.858 374.217 390.55 376.094C390.243 377.97 390.193 379.941 389.405 381.674C388.998 382.575 388.413 383.382 388.027 384.303C387.755 385.036 387.556 385.794 387.432 386.566C387.194 387.774 386.985 389.121 387.278 390.279C386.857 390.724 386.367 391.097 385.825 391.383C385.905 391.076 385.969 390.77 386.024 390.458C384.744 391.616 382.424 391.21 381.403 392.602C381.096 393.05 380.976 393.6 381.069 394.135C381.162 394.67 381.459 395.149 381.899 395.468C382.218 395.663 382.564 395.811 382.925 395.909C385.404 396.701 387.952 397.498 390.501 397.078C390.802 397.045 391.094 396.952 391.358 396.805C391.69 396.561 391.963 396.247 392.157 395.884C392.538 395.28 392.92 394.676 393.297 394.072C394.21 394.344 395.139 394.561 396.078 394.721C396.173 395.513 396.242 396.305 396.277 397.097C396.773 397.196 397.437 397.226 397.67 396.766C397.741 396.591 397.769 396.403 397.754 396.216C397.754 395.864 397.804 395.399 397.834 394.924H397.933C399.445 394.985 400.95 394.681 402.32 394.037C401.79 389.651 403.54 385.363 405.057 381.213C406.659 376.846 408.032 372.4 409.415 367.954C410.407 364.824 411.503 361.794 412.474 358.66C413.697 354.699 414.925 350.738 416.158 346.777C416.694 345.034 417.234 343.311 417.849 341.578C419.143 338.071 420.679 334.658 422.445 331.363C422.941 330.428 423.437 329.502 423.843 328.531C424.339 327.348 424.691 326.11 425.088 324.887C425.952 322.378 426.992 319.932 428.201 317.569C428.236 317.505 428.261 317.445 428.295 317.386C428.697 319.025 429.099 320.688 429.366 322.337C429.729 324.359 429.757 326.426 429.451 328.457C429.213 329.838 428.761 331.205 428.816 332.606C428.89 334.542 429.927 336.3 430.437 338.166C430.766 339.563 430.952 340.99 430.993 342.425C431.131 344.653 432.341 347.153 431.488 349.218C428.836 355.759 430.12 363.146 428.608 370.014C427.829 373.539 425.445 376.851 425.633 380.456C425.765 383.014 425.99 385.566 426.307 388.111C426.384 388.914 426.593 389.698 426.927 390.433C427.125 390.819 427.352 391.19 427.606 391.542C427.388 391.626 427.205 391.849 427.046 392.319C426.639 393.557 427.046 395.092 428.147 395.785C428.595 396.025 429.079 396.192 429.579 396.28C430.254 396.472 430.951 396.568 431.652 396.568C431.87 396.556 432.087 396.529 432.301 396.488C433.068 396.81 433.851 397.091 434.647 397.33C434.647 397.533 434.686 397.736 434.711 397.939C434.712 398.045 434.736 398.15 434.78 398.246C434.825 398.343 434.889 398.429 434.969 398.499C435.093 398.556 435.229 398.58 435.365 398.568H438.058C438.058 398.345 438.058 398.117 438.058 397.895C438.366 397.927 438.677 397.894 438.972 397.798C439.266 397.703 439.538 397.547 439.768 397.34C440.007 397.037 440.176 396.685 440.264 396.31C440.998 393.824 441.727 391.337 442.45 388.848C443.318 386.097 443.68 383.212 443.516 380.332C442.559 371.207 444.662 362.052 443.977 352.902C443.566 347.402 443.849 341.872 444.82 336.443C445.043 335.216 445.316 333.968 445.415 332.745C445.633 330.437 445.366 328.105 445.529 325.813C445.584 325.011 445.693 324.214 445.792 323.416C446.471 318.469 446.827 313.482 446.858 308.488C446.843 306.833 446.74 305.181 446.551 303.537C447.068 303.405 447.537 303.131 447.904 302.745C448.345 302.17 448.231 301.363 448.226 300.63C448.226 298.878 448.965 297.224 449.56 295.57C450.324 293.289 450.95 290.964 451.434 288.609C451.947 286.71 452.226 284.756 452.267 282.791C452.267 282.593 452.257 282.395 452.237 282.197C452.424 282.067 452.58 281.898 452.694 281.701C452.823 281.411 452.903 281.102 452.932 280.785C453.11 279.523 453.293 278.255 453.472 276.988C453.604 276.08 453.735 275.174 453.864 274.269L455.44 263.282C455.574 262.327 455.713 261.376 455.847 260.425L456.258 257.583C456.303 257.247 456.353 256.91 456.387 256.593C457.597 254.573 456.442 251.88 456.313 249.582ZM443.159 290.718C442.574 289.331 442.029 287.91 442.168 286.415H442.113C442.244 285.955 442.221 285.465 442.049 285.019C441.895 284.657 441.627 284.35 441.464 283.989C441.288 283.548 441.197 283.077 441.196 282.603C441.073 279.591 441.311 276.576 441.905 273.621C441.969 273.274 442.039 272.923 442.103 272.576C442.311 272.456 442.502 272.308 442.669 272.135C442.929 271.839 443.145 271.505 443.308 271.145C443.868 270.021 444.379 268.877 444.85 267.714C445.004 267.338 445.227 266.902 445.609 266.808C445.529 269.704 445.827 272.66 444.647 275.275C444.423 275.696 444.256 276.146 444.151 276.611C444.042 277.349 444.349 278.097 444.24 278.83C444.186 279.211 444.022 279.562 443.958 279.939C443.909 280.123 443.909 280.318 443.96 280.502C444.01 280.687 444.109 280.854 444.245 280.988C444.311 281.034 444.383 281.071 444.458 281.097C444.429 281.295 444.404 281.498 444.384 281.692C444.344 282.098 444.324 282.479 444.3 282.716C444.186 283.928 444.141 285.144 444.166 286.361C444.166 287.673 444.215 288.985 444.196 290.322C444.214 290.705 444.15 291.089 444.007 291.446C443.909 291.63 443.782 291.797 443.63 291.941C443.487 291.495 443.328 291.104 443.159 290.718Z" fill="url(#paint0_linear)"/>
<path d="M404.022 233.267C405.535 232.958 406.05 229.239 405.172 224.96C404.294 220.682 402.356 217.465 400.843 217.775C399.331 218.084 398.816 221.803 399.693 226.082C400.571 230.36 402.509 233.577 404.022 233.267Z" fill="#FBBEBE"/>
<path d="M427.125 392.413C426.719 393.641 427.125 395.176 428.226 395.845C428.672 396.082 429.152 396.249 429.649 396.34C430.322 396.529 431.017 396.624 431.716 396.622C432.574 396.582 433.397 396.246 434.255 396.127C434.354 396.102 434.459 396.116 434.547 396.166C434.59 396.212 434.622 396.267 434.641 396.327C434.66 396.387 434.665 396.451 434.656 396.513C434.666 397 434.702 397.486 434.766 397.969C434.766 398.075 434.79 398.18 434.834 398.276C434.879 398.373 434.943 398.459 435.023 398.528C435.147 398.586 435.284 398.61 435.42 398.598H438.107C438.168 396.24 437.91 393.885 437.339 391.596C437.301 391.421 437.234 391.254 437.14 391.101C436.912 390.852 436.613 390.679 436.283 390.606C435.626 390.333 434.916 390.21 434.205 390.245C433.338 390.359 432.614 390.918 431.875 391.383C431.136 391.849 430.13 392.26 429.232 392.022C428.335 391.785 427.586 391.037 427.125 392.413Z" fill="#3F3D56"/>
<path d="M387.67 390.24C386.914 391.048 385.988 391.677 384.958 392.082L384.501 392.299C384.438 392.323 384.385 392.367 384.348 392.423C384.339 392.462 384.339 392.502 384.348 392.54C384.356 392.579 384.373 392.615 384.397 392.646C384.777 393.232 385.338 393.679 385.995 393.917C386.652 394.156 387.369 394.174 388.037 393.968C388.332 393.894 388.605 393.752 388.835 393.552C389.213 393.104 389.429 392.543 389.45 391.958C389.6 391.354 389.574 390.72 389.375 390.131C388.686 388.581 388.433 389.284 387.67 390.24Z" fill="#FBBEBE"/>
<path d="M397.972 396.34C397.988 396.527 397.959 396.715 397.888 396.889C397.655 397.345 397.006 397.32 396.5 397.221C396.423 395.541 396.219 393.869 395.89 392.22C394.928 392.176 394.234 393.087 393.718 393.904L392.39 396.008C392.198 396.37 391.926 396.685 391.596 396.929C391.331 397.074 391.04 397.167 390.739 397.201C388.2 397.622 385.637 396.825 383.188 396.033C382.827 395.936 382.481 395.789 382.161 395.597C381.724 395.277 381.429 394.799 381.336 394.266C381.244 393.732 381.362 393.184 381.666 392.735C382.692 391.349 384.997 391.745 386.277 390.596C386.143 391.404 385.924 392.196 385.622 392.958C387.333 392.701 388.483 391.136 389.861 390.091C390.207 389.798 390.624 389.6 391.071 389.517C391.405 389.489 391.741 389.524 392.062 389.621C393.652 390.02 395.139 390.751 396.426 391.765C396.946 392.176 397.759 392.755 397.987 393.389C398.23 394.146 397.972 395.533 397.972 396.34Z" fill="#3F3D56"/>
<path d="M432.078 232.975C437.735 232.975 442.321 228.395 442.321 222.746C442.321 217.096 437.735 212.516 432.078 212.516C426.421 212.516 421.835 217.096 421.835 222.746C421.835 228.395 426.421 232.975 432.078 232.975Z" fill="#FBBEBE"/>
<path d="M452.257 283.142C452.216 285.098 451.938 287.041 451.429 288.93C450.944 291.276 450.319 293.591 449.555 295.862C448.965 297.511 448.226 299.165 448.231 300.913C448.231 301.64 448.35 302.448 447.904 303.022C447.507 303.425 447.006 303.711 446.456 303.849C446.182 303.921 445.929 304.057 445.717 304.246C445.505 304.434 445.341 304.67 445.237 304.933C444.771 304.239 444.423 303.472 444.205 302.665C443.316 299.945 442.49 297.211 441.726 294.461C441.657 294.303 441.626 294.13 441.639 293.957C441.651 293.785 441.705 293.618 441.796 293.471C441.922 293.362 442.068 293.279 442.227 293.228C442.735 293.021 443.201 292.722 443.601 292.347C443.788 292.181 443.943 291.981 444.057 291.758C444.201 291.403 444.267 291.021 444.25 290.639C444.25 289.327 444.25 288.019 444.215 286.707C444.195 285.496 444.241 284.284 444.354 283.078C444.354 282.84 444.399 282.459 444.439 282.053C444.513 281.276 444.662 280.374 445.083 280.072C445.713 279.652 447.597 280.216 448.311 280.315C449.54 280.483 450.79 280.681 451.99 280.914C452.164 281.644 452.254 282.392 452.257 283.142Z" fill="#3F3D56"/>
<path d="M410.898 234.198C410.501 234.991 409.549 235.372 408.815 235.872L406.302 237.595C406.134 237.746 405.937 237.862 405.723 237.935C405.509 238.008 405.283 238.037 405.057 238.021C404.853 237.945 404.665 237.83 404.506 237.681C404.347 237.532 404.219 237.353 404.13 237.154C404.132 237.141 404.132 237.128 404.13 237.115L403.61 236.243L401.131 232.094C400.855 231.722 400.695 231.278 400.669 230.817C400.669 230.604 400.744 230.406 400.764 230.193C400.77 229.595 400.598 229.008 400.268 228.509C400.07 228.138 399.673 227.831 399.683 227.415C399.664 226.868 399.758 226.324 399.96 225.816C400.221 225.346 400.594 224.947 401.046 224.657C401.279 224.489 401.517 224.33 401.765 224.162C401.897 224.072 402.043 224.005 402.197 223.964C402.608 223.88 403.015 224.221 403.431 224.236C405.221 225.434 405.91 227.702 407.318 229.336C408.111 230.267 408.191 230.98 409.088 231.812C409.232 231.94 409.371 232.079 409.505 232.223C409.682 232.416 409.832 232.633 409.951 232.866C410.114 233.292 411.101 233.792 410.898 234.198Z" fill="#3F3D56"/>
<path d="M428.479 232.98C429.218 234.54 429.793 236.253 429.58 237.966C429.536 238.43 429.388 238.879 429.148 239.278C428.434 240.373 426.937 240.571 425.633 240.635C425.358 240.612 425.082 240.644 424.819 240.729C424.557 240.814 424.315 240.95 424.106 241.13C423.932 241.383 423.846 241.687 423.863 241.993C423.881 242.299 423.999 242.592 424.2 242.824C424.619 243.27 425.139 243.61 425.717 243.814C427.78 244.72 430.006 245.468 432.247 245.26C433.288 245.161 434.3 244.859 435.336 244.705C436.465 244.583 437.601 244.52 438.737 244.517C440.085 244.467 441.429 244.334 442.773 244.2L446.333 243.849C446.527 243.851 446.716 243.783 446.863 243.655C447.126 243.348 446.789 242.898 446.461 242.665C444.572 241.269 442.168 240.308 441.092 238.209C440.596 237.219 440.442 236.04 440.076 234.971C439.709 233.901 439.124 232.936 438.896 231.846C438.774 230.891 438.719 229.928 438.732 228.965C438.744 227.994 438.39 227.053 437.74 226.331C437.031 225.672 436.005 225.504 435.043 225.464C432.673 225.36 430.15 225.925 428.469 227.593C428.018 228.044 427.631 228.584 427.165 228.99C426.699 229.396 426.064 229.514 426.372 230.049C426.679 230.584 427.284 230.916 427.611 231.386C427.942 231.894 428.233 232.427 428.479 232.98Z" fill="#FBBEBE"/>
<path d="M448.673 247.384C448.048 251.196 447.031 254.934 445.638 258.539C444.939 260.167 444.342 261.837 443.854 263.54C443.472 265.075 443.546 266.719 443.194 268.259C442.758 270.175 442.322 272.096 441.97 274.027C441.379 276.976 441.143 279.984 441.266 282.989C441.267 283.462 441.358 283.931 441.533 284.37C441.697 284.727 441.96 285.034 442.113 285.4C442.228 285.722 442.275 286.064 442.251 286.405C442.228 286.746 442.133 287.078 441.975 287.381C441.72 287.947 441.375 288.469 440.953 288.925C436.332 290.302 431.389 289.851 426.575 290.143C422.138 290.411 417.651 291.322 413.278 290.564C412.782 288.584 413.61 286.509 414.319 284.578C416.376 278.968 418.652 273.126 418.285 267.248C418.247 266.563 418.169 265.88 418.052 265.204C417.333 261.039 418.117 256.727 419.371 252.691C420.149 250.176 420.115 247.498 419.936 244.878C419.848 244.028 419.836 243.171 419.902 242.318C419.973 241.448 420.297 240.617 420.834 239.927C420.834 239.892 420.878 239.858 420.903 239.823C420.928 239.788 421.121 239.793 421.275 239.823C421.314 239.84 421.356 239.848 421.399 239.848C421.441 239.848 421.484 239.84 421.523 239.823L421.577 239.788C421.598 239.773 421.623 239.765 421.649 239.765C421.675 239.765 421.7 239.773 421.721 239.788C421.835 239.858 421.9 240.095 422.147 240.14C422.514 240.195 422.883 240.23 423.253 240.244C423.698 240.257 424.141 240.32 424.572 240.432H424.631C425.276 240.541 425.938 240.484 426.555 240.269C426.966 240.166 427.362 240.013 427.735 239.813C427.844 239.694 428.528 239.585 428.667 239.501C429.118 239.229 429.019 237.951 429.113 237.426C429.166 236.9 429.291 236.384 429.485 235.892C429.711 235.529 430.023 235.226 430.393 235.011C430.763 234.796 431.18 234.675 431.607 234.659C432.461 234.638 433.314 234.715 434.151 234.886C436 235.149 437.894 235.104 439.709 235.53C440.621 235.743 441.618 236.065 442.455 235.649C442.684 235.703 442.718 235.902 442.718 236.144C442.697 236.375 442.65 236.602 442.579 236.822C442.262 238.189 443.338 239.447 444.33 240.437C444.749 240.904 445.243 241.297 445.792 241.6C446.288 241.828 446.784 241.922 447.28 242.17C447.681 242.384 448.022 242.696 448.271 243.076C448.557 243.512 448.749 244.003 448.836 244.517C448.943 245.475 448.888 246.444 448.673 247.384Z" fill="#3F3D56"/>
<path opacity="0.1" d="M448.673 247.384C448.047 251.196 447.031 254.935 445.638 258.539C444.938 260.167 444.342 261.837 443.854 263.54C443.472 265.075 443.546 266.719 443.194 268.259C442.758 270.175 442.322 272.096 441.97 274.027C441.865 274.086 441.756 274.141 441.647 274.19C441.03 274.485 440.377 274.694 439.704 274.814C438.495 274.96 437.271 274.92 436.074 274.695L428.999 273.75C426.173 273.368 423.164 272.908 421.067 270.997C419.902 269.947 419.138 268.561 418.3 267.224C418.262 266.538 418.184 265.856 418.067 265.179C417.348 261.015 418.132 256.702 419.386 252.667C420.164 250.152 420.13 247.473 419.951 244.854C419.863 244.003 419.851 243.146 419.916 242.294C419.988 241.423 420.312 240.592 420.849 239.902C420.993 239.86 421.141 239.827 421.29 239.803C421.39 239.783 421.491 239.77 421.592 239.764H421.736C421.903 239.764 422.069 239.784 422.232 239.823C422.57 239.93 422.901 240.058 423.223 240.204H423.283C423.708 240.344 424.154 240.408 424.602 240.392C425.256 240.392 425.93 240.288 426.585 240.244C427.393 240.118 428.221 240.266 428.935 240.665C429.396 241.035 429.833 241.433 430.244 241.858C430.74 242.247 431.298 242.55 431.895 242.754C436.163 244.381 440.898 244.282 445.093 242.477C445.496 242.248 445.953 242.132 446.417 242.14C446.759 242.207 447.084 242.346 447.369 242.546C447.666 242.72 447.959 242.888 448.261 243.041C448.547 243.478 448.739 243.968 448.826 244.482C448.94 245.451 448.888 246.432 448.673 247.384Z" fill="black"/>
<path d="M452.991 244.106C451.017 243.504 449.12 242.673 447.339 241.63C447.053 241.431 446.729 241.293 446.387 241.224C445.922 241.219 445.464 241.335 445.058 241.561C440.865 243.365 436.131 243.465 431.865 241.838C431.269 241.632 430.711 241.329 430.214 240.942C429.802 240.519 429.365 240.12 428.905 239.749C427.274 238.694 425.018 239.932 423.194 239.254C422.87 239.109 422.539 238.982 422.202 238.872C420.759 238.511 419.292 239.947 417.874 239.511C417.346 240.943 416.956 242.422 416.709 243.928C416.507 245.657 416.399 247.396 416.386 249.137C416.386 250.181 416.337 251.226 416.386 252.271C416.561 252.299 416.728 252.364 416.876 252.46C417.025 252.556 417.152 252.682 417.249 252.83C417.314 253.003 417.341 253.187 417.327 253.371C417.313 253.555 417.26 253.734 417.17 253.895C416.133 256.554 415.082 259.242 413.511 261.624C414.618 262.283 415.646 263.067 416.575 263.961C418.31 265.793 419.163 268.363 421.037 270.056C423.149 271.962 426.159 272.428 428.97 272.804L436.045 273.75C437.243 273.974 438.468 274.015 439.679 273.873C440.35 273.751 441.002 273.54 441.618 273.245C442.019 273.077 442.386 272.835 442.698 272.532C442.96 272.235 443.175 271.901 443.338 271.541C443.898 270.422 444.409 269.279 444.88 268.12C445.044 267.709 445.291 267.229 445.738 267.194C448.365 264.827 450.844 262.401 453.472 260.034C454.528 259.16 455.475 258.163 456.293 257.064C457.597 255.138 456.412 252.409 456.293 250.082C456.279 249.487 456.204 248.895 456.07 248.315C455.644 246.626 454.642 244.606 452.991 244.106Z" fill="#71EFA3"/>
<path opacity="0.1" d="M410.898 234.198C410.501 234.991 409.549 235.372 408.815 235.872L406.302 237.595C406.134 237.746 405.937 237.862 405.723 237.935C405.509 238.008 405.283 238.037 405.057 238.021C404.853 237.945 404.665 237.83 404.506 237.681C404.347 237.532 404.219 237.353 404.13 237.154C404.13 237.04 404.13 236.917 404.13 236.798C404.111 236.397 404.165 235.996 404.289 235.614C404.535 235.054 404.917 234.564 405.399 234.188C406.333 233.306 407.443 232.631 408.657 232.208C408.846 232.134 409.052 232.114 409.252 232.148C409.329 232.169 409.402 232.2 409.47 232.243C409.647 232.436 409.797 232.652 409.916 232.886C410.114 233.292 411.101 233.792 410.898 234.198Z" fill="black"/>
<path d="M416.818 239.417C415.975 239.377 415.286 238.768 414.671 238.189L412.792 236.446C412.666 236.34 412.556 236.217 412.465 236.08C412.363 235.887 412.286 235.683 412.236 235.471C411.838 234.471 411.214 233.576 410.412 232.857C410.272 232.679 410.085 232.545 409.871 232.47C409.67 232.433 409.462 232.454 409.272 232.53C408.057 232.952 406.947 233.627 406.014 234.51C405.532 234.887 405.15 235.377 404.904 235.936C404.779 236.318 404.725 236.719 404.745 237.12C404.757 238.428 405.051 239.718 405.608 240.903C405.692 241.086 405.786 241.269 405.885 241.447C406.547 242.539 407.328 243.554 408.216 244.472L409.396 245.789C410.556 247.087 411.716 248.384 412.975 249.577C413.427 250.058 413.974 250.439 414.582 250.696C414.887 250.821 415.22 250.859 415.546 250.806C415.871 250.754 416.175 250.613 416.426 250.399C416.663 250.125 416.842 249.804 416.951 249.458C417.715 247.478 418.439 245.418 418.483 243.284C418.494 242.429 418.458 241.575 418.374 240.724C418.3 239.823 417.66 239.472 416.818 239.417Z" fill="#71EFA3"/>
<path d="M446.863 308.736C446.834 313.716 446.48 318.69 445.802 323.624C445.703 324.422 445.594 325.219 445.539 326.016C445.376 328.328 445.643 330.65 445.425 332.948C445.311 334.191 445.053 335.423 444.835 336.636C443.866 342.051 443.583 347.565 443.992 353.05C444.677 362.175 442.579 371.306 443.531 380.406C443.647 382.176 443.548 383.953 443.239 385.699C443.061 386.783 442.804 387.852 442.47 388.898C441.746 391.377 441.019 393.853 440.289 396.325C440.203 396.701 440.033 397.053 439.793 397.355C439.54 397.573 439.243 397.735 438.923 397.83C438.602 397.925 438.265 397.95 437.934 397.904C435.073 397.815 432.381 396.582 429.783 395.379C429.484 395.261 429.207 395.094 428.965 394.884C428.424 394.325 428.469 393.443 428.231 392.705C427.993 391.968 427.348 391.274 426.982 390.517C426.68 389.8 426.497 389.039 426.441 388.264C426.111 385.729 425.886 383.184 425.767 380.629C425.578 377.034 427.958 373.727 428.742 370.231C430.229 363.359 428.97 355.991 431.612 349.47C432.445 347.411 431.236 344.915 431.117 342.697C431.074 341.266 430.888 339.843 430.561 338.449C430.065 336.587 429.019 334.834 428.945 332.903C428.89 331.507 429.342 330.145 429.575 328.769C429.884 326.743 429.855 324.68 429.49 322.664C429.228 321 428.826 319.337 428.424 317.712L428.335 317.896C427.127 320.254 426.088 322.694 425.226 325.199C424.83 326.412 424.483 327.65 423.987 328.828C423.58 329.818 423.08 330.725 422.589 331.655C420.828 334.938 419.296 338.338 418.003 341.83C417.388 343.544 416.847 345.296 416.312 347.014L412.638 358.898C411.647 362.022 410.561 365.042 409.589 368.162C408.216 372.618 406.842 377.034 405.246 381.392C403.758 385.526 401.988 389.809 402.519 394.176C401.152 394.818 399.65 395.122 398.141 395.062C395.586 394.837 393.079 394.229 390.704 393.26C389.757 392.908 388.775 392.512 388.136 391.735C387.035 390.393 387.308 388.427 387.64 386.719C387.765 385.949 387.964 385.193 388.235 384.461C388.612 383.55 389.227 382.743 389.613 381.842C390.392 380.114 390.441 378.158 390.749 376.282C391.056 374.405 391.74 372.425 393.347 371.405C393.619 368.107 394.978 364.854 395.726 361.631C396.292 359.19 396.48 356.68 396.926 354.204C397.372 351.728 398.091 349.253 399.589 347.247C399.471 345.18 399.938 343.12 400.937 341.306C401.179 340.907 401.377 340.484 401.527 340.043C401.62 339.613 401.673 339.175 401.686 338.736C401.85 337.015 402.587 335.399 403.778 334.146C403.282 332.339 403.972 330.452 404.591 328.699C405.372 326.463 405.725 324.1 405.632 321.733C405.556 321.072 405.587 320.403 405.727 319.752C405.866 319.257 406.138 318.836 406.297 318.361C406.438 317.779 406.513 317.183 406.52 316.584C406.713 313.905 407.799 311.38 408.999 308.988C409.713 307.592 409.108 305.696 409.257 304.141C409.515 301.556 409.797 298.883 411.081 296.63C411.319 296.204 411.577 295.798 411.79 295.357C412.049 294.728 412.188 294.057 412.202 293.377C412.246 292.243 412.405 291.302 411.999 290.247C414.651 288.044 418.27 287.425 421.721 287.277C425.172 287.128 428.662 287.44 432.039 286.707C433.03 286.484 434.022 286.177 435.068 286.029C437.443 285.682 439.852 286.222 442.198 286.757C442.034 288.242 442.579 289.668 443.189 291.05C445.57 296.645 446.819 302.656 446.863 308.736Z" fill="#33313F"/>
<path opacity="0.1" d="M435.187 309.87L429.49 322.664C429.227 321 428.826 319.337 428.424 317.713L428.335 317.896V317.628L431.439 310.81L435.187 309.87Z" fill="black"/>
<path opacity="0.1" d="M452.257 283.142C451.929 283.388 451.536 283.534 451.127 283.563C450.499 283.585 449.872 283.5 449.273 283.311L444.81 282.197C444.671 282.162 444.534 282.114 444.404 282.053C444.478 281.276 444.627 280.374 445.048 280.072C445.678 279.652 447.562 280.216 448.276 280.315C449.506 280.483 450.755 280.681 451.955 280.914C452.141 281.643 452.242 282.391 452.257 283.142Z" fill="black"/>
<path d="M456.03 253.682C456.125 254.093 456.258 254.499 456.338 254.915C456.471 255.935 456.436 256.971 456.234 257.98L455.827 260.812L455.42 263.659L453.849 274.616L453.462 277.329L452.917 281.117C452.891 281.432 452.81 281.741 452.679 282.028C452.516 282.297 452.289 282.522 452.019 282.682C451.748 282.842 451.441 282.932 451.127 282.944C450.499 282.964 449.872 282.879 449.273 282.692L444.81 281.573C444.615 281.538 444.429 281.462 444.265 281.35C444.129 281.217 444.03 281.05 443.98 280.866C443.929 280.683 443.928 280.489 443.977 280.305C444.042 279.929 444.206 279.577 444.26 279.201C444.369 278.468 444.062 277.716 444.171 276.988C444.278 276.524 444.444 276.077 444.667 275.656C446.154 272.373 445.291 268.541 445.797 264.976C446.252 262.17 447.439 259.533 449.238 257.331C450.348 255.941 451.623 254.69 453.036 253.608C453.591 253.177 454.474 252.29 455.173 252.122C456.07 251.934 455.882 253.058 456.03 253.682Z" fill="#71EFA3"/>
<path d="M422.262 211.031C421.934 212.071 422.445 213.215 422.212 214.274C421.959 215.443 420.858 216.255 420.546 217.428C420.05 219.216 421.567 220.845 422.678 222.33C426.793 227.846 426.253 235.481 424.845 242.21C423.712 247.608 422.145 252.907 420.159 258.054C419.54 259.653 418.855 261.277 417.636 262.475C419.916 261.822 422.341 261.163 424.626 261.797C427.522 262.599 430.021 265.407 432.956 264.768C434.721 264.377 435.96 262.812 437.547 261.946C440.522 260.346 444.106 261.352 447.423 261.866C448.138 262.035 448.886 261.997 449.58 261.758C450.111 261.473 450.561 261.059 450.889 260.554C452.369 258.658 453.256 256.367 453.437 253.969C453.516 252.775 453.339 251.578 452.92 250.457C452.5 249.337 451.847 248.318 451.003 247.468C450.299 246.804 449.456 246.27 448.916 245.487C448.39 244.574 448.108 243.541 448.098 242.487C447.706 237.04 449.035 231.48 447.666 226.212C447.17 224.335 446.362 222.538 446.144 220.617C445.871 218.225 446.521 215.665 445.569 213.477C444.82 211.739 443.169 210.506 441.389 209.872C439.609 209.239 437.706 209.06 435.817 208.882C433.1 208.654 423.397 207.491 422.262 211.031Z" fill="#33313F"/>
<g opacity="0.1">
<path opacity="0.1" d="M424.845 242.21C423.717 247.586 422.159 252.863 420.184 257.989C420.526 257.311 420.814 256.598 421.086 255.89C423.074 250.744 424.641 245.445 425.772 240.046C427.185 233.312 427.725 225.687 423.61 220.166C422.618 218.849 421.344 217.423 421.389 215.878C421.022 216.346 420.737 216.871 420.546 217.433C420.05 219.22 421.567 220.849 422.678 222.335C426.793 227.846 426.253 235.481 424.845 242.21Z" fill="black"/>
<path opacity="0.1" d="M422.271 213.774C422.669 213.281 422.966 212.713 423.144 212.105C423.221 211.37 423.201 210.627 423.084 209.897C422.703 210.184 422.416 210.579 422.262 211.031C421.969 211.907 422.306 212.858 422.271 213.774Z" fill="black"/>
<path opacity="0.1" d="M451.821 258.376C451.493 258.879 451.042 259.291 450.512 259.574C449.819 259.818 449.07 259.856 448.355 259.683C445.038 259.188 441.414 258.168 438.479 259.767C436.888 260.628 435.653 262.193 433.883 262.589C430.953 263.243 428.454 260.435 425.559 259.618C423.506 259.049 421.344 259.519 419.277 260.114C418.866 260.988 418.311 261.788 417.636 262.48C419.916 261.827 422.341 261.168 424.626 261.802C427.522 262.604 430.021 265.411 432.956 264.773C434.721 264.382 435.96 262.817 437.547 261.95C440.522 260.351 444.106 261.356 447.423 261.871C448.138 262.04 448.886 262.002 449.58 261.762C450.111 261.477 450.561 261.064 450.889 260.559C451.787 259.376 452.481 258.05 452.941 256.638C452.61 257.243 452.236 257.824 451.821 258.376Z" fill="black"/>
</g>
</g>
<defs>
<linearGradient id="paint0_linear" x1="381.071" y1="303.23" x2="456.928" y2="303.23" gradientUnits="userSpaceOnUse">
<stop stop-color="#808080" stop-opacity="0.25"/>
<stop offset="0.54" stop-color="#808080" stop-opacity="0.12"/>
<stop offset="1" stop-color="#808080" stop-opacity="0.1"/>
</linearGradient>
<clipPath id="clip0">
<rect width="590" height="407" fill="white"/>
</clipPath>
</defs>
</svg>
