<svg width="680" height="350" viewBox="0 0 714 394" fill="none" xmlns="http://www.w3.org/2000/svg">
<g clip-path="url(#clip0)">
<path d="M367.403 391.784C356.116 393.442 344.692 393.992 333.297 393.428C305.819 392.044 278.796 384.075 255.702 369.093C245.463 362.449 235.696 354.287 230.396 343.323C223.202 328.433 225.718 309.583 235.99 296.614C239.737 291.937 244.346 288.016 249.569 285.063C250.343 284.627 251.134 284.208 251.933 283.805C260.636 279.441 270.411 277.657 280.1 278.663C296.573 280.458 311.776 290.491 320.559 304.508C328.383 317.007 331.109 331.755 332.716 346.535C333.019 349.32 333.28 352.114 333.532 354.89C332.132 362.935 329.931 370.82 326.961 378.429C326.81 378.8 326.686 379.181 326.591 379.57C328.274 383.211 329.875 386.885 331.395 390.593C332.823 391.366 334.423 391.769 336.048 391.767H367.336L367.403 391.784Z" fill="#F2F2F2"/>
<path d="M330.747 392.497C330.54 392.589 330.316 392.639 330.089 392.645C329.862 392.65 329.636 392.61 329.424 392.527C329.213 392.444 329.02 392.32 328.857 392.162C328.694 392.005 328.565 391.816 328.476 391.608C328.341 391.289 328.215 390.97 328.08 390.651C326.869 387.715 325.598 384.807 324.269 381.927C307.251 344.761 281.867 312.007 250.09 286.213C249.908 286.085 249.764 285.911 249.672 285.709C249.581 285.507 249.545 285.284 249.569 285.063C249.615 284.811 249.718 284.571 249.87 284.364C250.022 284.156 250.219 283.985 250.446 283.864C250.674 283.743 250.925 283.675 251.183 283.665C251.44 283.655 251.697 283.703 251.933 283.805C252.06 283.862 252.179 283.936 252.287 284.023C265.882 295.064 278.354 307.413 289.523 320.891C300.694 334.357 310.53 348.87 318.893 364.227C321.173 368.421 323.338 372.674 325.388 376.986C325.792 377.842 326.196 378.706 326.591 379.57C328.274 383.211 329.875 386.885 331.395 390.593C331.42 390.651 331.445 390.718 331.471 390.777C331.548 390.936 331.591 391.109 331.596 391.286C331.601 391.462 331.568 391.638 331.499 391.8C331.431 391.963 331.328 392.109 331.198 392.229C331.069 392.35 330.915 392.441 330.747 392.497Z" fill="white"/>
<path d="M219.164 281.859C237.285 281.859 251.975 267.212 251.975 249.143C251.975 231.075 237.285 216.427 219.164 216.427C201.043 216.427 186.353 231.075 186.353 249.143C186.353 267.212 201.043 281.859 219.164 281.859Z" fill="#71EFA3"/>
<path d="M215.912 261.623C215.174 261.625 214.455 261.387 213.864 260.945L213.828 260.918L206.117 255.031C205.759 254.759 205.46 254.418 205.234 254.03C205.009 253.642 204.862 253.213 204.803 252.768C204.744 252.323 204.773 251.871 204.889 251.438C205.005 251.004 205.206 250.598 205.48 250.241C205.753 249.885 206.095 249.586 206.484 249.362C206.874 249.137 207.304 248.991 207.75 248.933C208.196 248.874 208.65 248.903 209.085 249.019C209.519 249.135 209.927 249.335 210.284 249.609L215.278 253.427L227.081 238.079C227.355 237.723 227.696 237.425 228.086 237.2C228.475 236.976 228.905 236.83 229.351 236.771C229.797 236.713 230.251 236.742 230.685 236.858C231.12 236.974 231.527 237.174 231.884 237.447L231.811 237.546L231.886 237.449C232.606 238 233.077 238.815 233.196 239.712C233.315 240.61 233.072 241.518 232.52 242.238L218.637 260.29C218.316 260.706 217.903 261.043 217.431 261.274C216.958 261.505 216.438 261.625 215.912 261.623Z" fill="white"/>
<path d="M139.275 114.039C152.722 114.039 163.623 103.17 163.623 89.7626C163.623 76.3549 152.722 65.4858 139.275 65.4858C125.829 65.4858 114.928 76.3549 114.928 89.7626C114.928 103.17 125.829 114.039 139.275 114.039Z" fill="#2F2E41"/>
<path d="M120.271 76.6732C124.205 72.7502 125.003 67.1848 122.052 64.2425C119.101 61.3002 113.519 62.0953 109.585 66.0183C105.651 69.9414 104.853 75.5068 107.804 78.4491C110.755 81.3913 116.337 80.5963 120.271 76.6732Z" fill="#2F2E41"/>
<path d="M164.652 68.9638C166.291 65.1373 163.472 60.2685 158.355 58.0891C153.238 55.9098 147.761 57.245 146.122 61.0715C144.483 64.898 147.302 69.7667 152.419 71.9461C157.536 74.1255 163.013 72.7903 164.652 68.9638Z" fill="#2F2E41"/>
<path d="M207.073 229.922C207.688 228.756 208.04 227.47 208.102 226.154C208.165 224.838 207.938 223.524 207.436 222.306C206.935 221.087 206.171 219.992 205.2 219.1C204.228 218.207 203.072 217.537 201.813 217.138L166.632 142.933L150.54 154.185L190.181 223.588C189.649 225.742 189.927 228.015 190.964 229.978C192.001 231.94 193.723 233.455 195.805 234.236C197.888 235.017 200.185 235.009 202.261 234.214C204.338 233.419 206.05 231.892 207.073 229.922V229.922Z" fill="#FFB8B8"/>
<path d="M174.7 155.313L156.016 163.644C155.484 163.881 154.907 164.001 154.325 163.995C153.743 163.99 153.168 163.86 152.641 163.613C152.114 163.367 151.646 163.01 151.27 162.567C150.893 162.124 150.617 161.605 150.46 161.046L144.95 141.456C143.749 138.737 143.679 135.654 144.754 132.884C145.829 130.113 147.962 127.881 150.686 126.676C153.409 125.471 156.501 125.392 159.282 126.457C162.064 127.521 164.309 129.642 165.525 132.354L176.463 149.452C176.776 149.942 176.979 150.493 177.06 151.068C177.14 151.643 177.095 152.229 176.927 152.785C176.76 153.341 176.474 153.855 176.09 154.291C175.706 154.727 175.232 155.076 174.7 155.313Z" fill="#CCCCCC"/>
<path d="M88.4087 237.279C89.6958 236.981 90.9016 236.405 91.9413 235.592C92.9811 234.779 93.8294 233.749 94.4265 232.574C95.0236 231.398 95.3551 230.107 95.3975 228.79C95.4399 227.473 95.1922 226.163 94.6719 224.952L127.99 149.897L108.93 145.111L82.1731 220.393C80.1907 221.399 78.6474 223.095 77.8356 225.16C77.0238 227.226 77 229.516 77.7686 231.597C78.5373 233.679 80.0449 235.407 82.006 236.454C83.967 237.501 86.2452 237.795 88.4087 237.279H88.4087Z" fill="#FFB8B8"/>
<path d="M79.3264 373.323L89.0183 376.841L107.242 341.241L92.9372 336.049L79.3264 373.323Z" fill="#FFB8B8"/>
<path d="M104.433 392.6L73.9729 381.542L78.2578 369.808L96.9493 376.593C100.071 377.727 102.612 380.05 104.016 383.052C105.419 386.053 105.569 389.488 104.433 392.6Z" fill="#2F2E41"/>
<path d="M102.251 352.836C101.656 352.836 101.069 352.705 100.532 352.451L89.3932 347.191C88.4801 346.763 87.7605 346.011 87.3761 345.081C86.9917 344.151 86.9704 343.111 87.3164 342.166L118.751 255.37C119.011 254.651 119.471 254.021 120.076 253.552C120.681 253.083 121.408 252.795 122.17 252.721C122.933 252.647 123.702 252.791 124.386 253.134C125.071 253.478 125.643 254.009 126.037 254.664L142.664 282.294C143.034 282.91 143.233 283.612 143.24 284.33C143.248 285.048 143.064 285.754 142.707 286.378L105.785 350.804C105.427 351.423 104.912 351.936 104.291 352.293C103.671 352.65 102.967 352.837 102.251 352.836Z" fill="#2F2E41"/>
<path d="M140.048 116.161C151.46 116.161 160.711 106.937 160.711 95.558C160.711 84.179 151.46 74.9546 140.048 74.9546C128.636 74.9546 119.384 84.179 119.384 95.558C119.384 106.937 128.636 116.161 140.048 116.161Z" fill="#FFB8B8"/>
<path d="M169.281 189.234L132.694 179.201L113.235 140.396C112.3 138.532 111.858 136.461 111.952 134.379C112.046 132.296 112.673 130.273 113.772 128.5C114.871 126.727 116.406 125.263 118.232 124.249C120.057 123.234 122.113 122.701 124.203 122.701H153.312C156.334 122.699 159.249 123.811 161.498 125.823C169.307 132.797 185.712 152.905 169.439 188.883L169.281 189.234Z" fill="#CCCCCC"/>
<path d="M123.48 163.32L104.943 154.669C104.415 154.423 103.947 154.066 103.57 153.623C103.194 153.18 102.917 152.662 102.759 152.103C102.602 151.544 102.567 150.958 102.657 150.384C102.747 149.81 102.96 149.263 103.282 148.779L114.547 131.814C115.826 129.131 118.119 127.063 120.925 126.063C123.73 125.063 126.819 125.213 129.514 126.481C132.208 127.748 134.289 130.029 135.3 132.824C136.311 135.618 136.169 138.698 134.905 141.389L129.08 160.819C128.913 161.376 128.628 161.889 128.244 162.326C127.859 162.762 127.386 163.111 126.854 163.349C126.323 163.586 125.746 163.706 125.164 163.701C124.581 163.697 124.007 163.567 123.48 163.32Z" fill="#CCCCCC"/>
<path d="M145.907 383.05H156.22L161.128 343.382L145.904 343.383L145.907 383.05Z" fill="#FFB8B8"/>
<path d="M176.113 392.599L143.697 392.6L143.696 380.112L163.588 380.112C166.91 380.111 170.095 381.427 172.444 383.769C174.793 386.111 176.113 389.287 176.113 392.599Z" fill="#2F2E41"/>
<path d="M149.801 367.934C148.874 367.936 147.974 367.618 147.254 367.035C146.534 366.452 146.038 365.64 145.849 364.735C142.884 350.806 127.486 279.463 115.468 242.714C103.24 205.326 124.065 188.296 128.364 185.262C128.822 184.939 129.185 184.501 129.418 183.993L132.541 177.142C132.865 176.435 133.386 175.836 134.041 175.415C134.697 174.995 135.461 174.771 136.24 174.771H136.265C159.678 174.911 167.549 182.27 169.846 185.427C170.185 185.898 170.417 186.436 170.526 187.004C170.636 187.573 170.62 188.159 170.48 188.721L155.666 249.66C155.575 250.038 155.554 250.429 155.605 250.815L170.343 361.461C170.414 361.993 170.378 362.534 170.237 363.051C170.096 363.569 169.853 364.054 169.523 364.477C169.192 364.9 168.78 365.253 168.311 365.516C167.842 365.779 167.325 365.946 166.791 366.008L150.277 367.907C150.119 367.925 149.96 367.934 149.801 367.934Z" fill="#2F2E41"/>
<path d="M118.335 82.5986C123.057 85.8436 128.662 87.5706 134.396 87.5478C132.351 88.9621 130.022 89.9174 127.57 90.3479C135.195 91.9787 143.075 92.0229 150.718 90.4776C152.417 90.206 154.056 89.6446 155.564 88.8181C156.315 88.3998 156.97 87.8284 157.485 87.1412C158 86.4541 158.365 85.6664 158.555 84.8296C159.063 81.9367 156.802 79.3085 154.453 77.5372C150.856 74.8667 146.708 73.0267 142.311 72.1505C137.913 71.2742 133.375 71.3837 129.025 72.4708C126.184 73.2029 123.338 74.4398 121.494 76.7143C119.649 78.9888 119.102 82.4953 120.86 84.8375L118.335 82.5986Z" fill="#2F2E41"/>
<path d="M497.638 171.968C503.678 171.968 508.575 167.085 508.575 161.062C508.575 155.039 503.678 150.157 497.638 150.157C491.598 150.157 486.701 155.039 486.701 161.062C486.701 167.085 491.598 171.968 497.638 171.968Z" fill="#71EFA3"/>
<path d="M496.554 165.222C496.308 165.223 496.068 165.143 495.871 164.996L495.859 164.987L493.289 163.025C493.17 162.934 493.069 162.821 492.994 162.691C492.918 162.562 492.869 162.419 492.849 162.27C492.83 162.122 492.839 161.971 492.878 161.826C492.917 161.681 492.983 161.546 493.075 161.427C493.166 161.308 493.28 161.208 493.41 161.133C493.54 161.059 493.684 161.01 493.833 160.99C493.982 160.971 494.133 160.981 494.278 161.02C494.423 161.059 494.559 161.126 494.678 161.217L496.343 162.49L500.277 157.374C500.368 157.256 500.482 157.156 500.612 157.081C500.742 157.006 500.885 156.958 501.034 156.938C501.182 156.919 501.334 156.929 501.478 156.967C501.623 157.006 501.759 157.073 501.878 157.164L501.854 157.197L501.879 157.164C502.119 157.348 502.276 157.619 502.315 157.919C502.355 158.218 502.274 158.521 502.09 158.76L497.462 164.778C497.355 164.917 497.218 165.029 497.06 165.106C496.903 165.183 496.729 165.223 496.554 165.222Z" fill="white"/>
<path d="M497.638 203.844C503.678 203.844 508.575 198.962 508.575 192.939C508.575 186.916 503.678 182.034 497.638 182.034C491.598 182.034 486.701 186.916 486.701 192.939C486.701 198.962 491.598 203.844 497.638 203.844Z" fill="#71EFA3"/>
<path d="M496.554 197.099C496.308 197.1 496.068 197.02 495.871 196.873L495.859 196.864L493.289 194.902C493.17 194.811 493.069 194.698 492.994 194.568C492.918 194.439 492.869 194.296 492.849 194.147C492.83 193.999 492.839 193.848 492.878 193.703C492.917 193.558 492.983 193.423 493.075 193.304C493.166 193.185 493.28 193.085 493.41 193.01C493.54 192.935 493.684 192.887 493.833 192.867C493.982 192.848 494.133 192.858 494.278 192.897C494.423 192.936 494.559 193.003 494.678 193.094L496.343 194.367L500.277 189.251C500.368 189.132 500.482 189.033 500.612 188.958C500.742 188.883 500.885 188.835 501.034 188.815C501.182 188.796 501.334 188.805 501.478 188.844C501.623 188.883 501.759 188.949 501.878 189.04L501.854 189.073L501.879 189.041C502.119 189.225 502.276 189.496 502.315 189.795C502.355 190.095 502.274 190.397 502.09 190.637L497.462 196.655C497.355 196.793 497.218 196.906 497.06 196.983C496.903 197.06 496.729 197.1 496.554 197.099Z" fill="white"/>
<path d="M503.527 240.754C509.568 240.754 514.464 235.872 514.464 229.849C514.464 223.826 509.568 218.944 503.527 218.944C497.487 218.944 492.59 223.826 492.59 229.849C492.59 235.872 497.487 240.754 503.527 240.754Z" fill="#71EFA3"/>
<path d="M502.443 234.009C502.197 234.01 501.957 233.93 501.761 233.783L501.748 233.774L499.178 231.812C499.059 231.721 498.958 231.608 498.883 231.478C498.807 231.349 498.758 231.206 498.738 231.057C498.719 230.909 498.728 230.758 498.767 230.613C498.806 230.468 498.873 230.333 498.964 230.214C499.055 230.095 499.169 229.995 499.299 229.92C499.429 229.845 499.573 229.797 499.722 229.777C499.871 229.758 500.022 229.768 500.167 229.807C500.312 229.846 500.448 229.913 500.567 230.004L502.232 231.277L506.166 226.161C506.257 226.043 506.371 225.943 506.501 225.868C506.631 225.793 506.774 225.745 506.923 225.725C507.072 225.706 507.223 225.715 507.368 225.754C507.512 225.793 507.648 225.86 507.767 225.951L507.743 225.984L507.768 225.951C508.008 226.135 508.165 226.406 508.205 226.706C508.244 227.005 508.163 227.308 507.979 227.547L503.352 233.565C503.244 233.704 503.107 233.816 502.949 233.893C502.792 233.97 502.619 234.01 502.443 234.009Z" fill="white"/>
<path d="M608.991 320.899C608.877 320.899 608.806 320.896 608.781 320.895L595.202 320.896V318.9H608.83C609.146 318.911 615.583 319.093 621.514 311.917C630.353 301.222 637.611 274.747 621.996 209.354C600.999 121.423 618.511 43.7415 627.015 14.4246C627.434 12.9741 627.509 11.4464 627.234 9.96214C626.959 8.47786 626.342 7.07768 625.431 5.87223C624.52 4.66678 623.34 3.68908 621.985 3.01639C620.63 2.34371 619.136 1.99447 617.622 1.99627H414.838C413.296 1.99833 411.776 2.36281 410.402 3.06014C409.028 3.75748 407.839 4.76801 406.93 6.00972C403.327 10.9506 398.384 20.4425 395.29 37.6056L393.32 37.2527C396.481 19.7169 401.585 9.94567 405.31 4.83613C406.405 3.33993 407.839 2.12227 409.494 1.28198C411.149 0.4417 412.98 0.00248523 414.838 5.43301e-06H617.622C619.447 -0.001745 621.246 0.419501 622.879 1.23046C624.512 2.04143 625.933 3.21989 627.031 4.67274C628.128 6.12559 628.872 7.81302 629.203 9.60172C629.534 11.3904 629.444 13.2314 628.938 14.9792C620.479 44.1441 603.057 121.423 623.944 208.892C639.779 275.204 632.166 302.253 622.992 313.267C616.941 320.531 610.274 320.899 608.991 320.899Z" fill="#E6E6E6"/>
<path d="M572.453 357.331C572.34 357.331 572.268 357.328 572.243 357.326L558.665 357.328V355.332H572.292C572.61 355.341 579.045 355.524 584.976 348.348C593.815 337.653 601.074 311.178 585.458 245.785C564.461 157.855 581.974 80.173 590.477 50.8561C590.896 49.4057 590.971 47.8779 590.696 46.3937C590.421 44.9094 589.804 43.5092 588.893 42.3038C587.982 41.0983 586.802 40.1206 585.447 39.4479C584.092 38.7753 582.598 38.426 581.085 38.4278H378.3C376.758 38.4299 375.239 38.7943 373.865 39.4917C372.491 40.189 371.301 41.1995 370.392 42.4412C366.79 47.3822 361.846 56.8741 358.753 74.0371L356.782 73.6843C359.943 56.1484 365.047 46.3772 368.773 41.2676C369.868 39.7715 371.301 38.5538 372.956 37.7135C374.612 36.8732 376.442 36.434 378.3 36.4315H581.085C582.909 36.4298 584.709 36.851 586.341 37.662C587.974 38.473 589.396 39.6514 590.493 41.1043C591.591 42.5571 592.334 44.2446 592.665 46.0333C592.997 47.822 592.906 49.6629 592.401 51.4107C583.941 80.5756 566.519 157.854 587.406 245.323C603.241 311.636 595.628 338.685 586.454 349.699C580.403 356.963 573.736 357.331 572.453 357.331Z" fill="#CCCCCC"/>
<path d="M550.868 281.758C529.978 194.29 547.402 117.005 555.865 87.846C556.369 86.0982 556.459 84.2575 556.127 82.4691C555.796 80.6808 555.052 78.9937 553.955 77.541C552.858 76.0882 551.437 74.9095 549.805 74.0978C548.172 73.2862 546.373 72.8638 544.549 72.8639H341.76C339.903 72.8657 338.073 73.3042 336.418 74.1438C334.764 74.9833 333.331 76.2003 332.236 77.6958C324.05 88.9198 307.064 126.14 326.036 229.128C336.182 284.224 336.031 321.789 332.716 346.535C330.856 360.469 327.988 370.334 325.388 376.986L325.111 377.691C324.563 379.037 324.277 380.475 324.269 381.927C324.25 383.567 324.58 385.193 325.237 386.697C325.894 388.2 326.863 389.548 328.08 390.651C328.874 391.393 329.773 392.015 330.747 392.497C331.556 392.908 332.412 393.221 333.296 393.428C334.197 393.647 335.121 393.757 336.048 393.755H535.707C535.733 393.755 535.8 393.764 535.918 393.764C537.197 393.764 543.868 393.394 549.917 386.13C559.087 375.116 566.701 348.07 550.868 281.758ZM548.436 384.779C542.505 391.96 536.069 391.775 535.758 391.767H336.048C334.449 391.767 332.874 391.376 331.462 390.628C330.049 389.881 328.842 388.8 327.945 387.48C327.157 386.339 326.627 385.04 326.393 383.674C326.159 382.308 326.227 380.907 326.591 379.57C326.686 379.181 326.81 378.8 326.961 378.429C329.931 370.82 332.132 362.935 333.532 354.891C338.277 329.095 339.16 289.291 328.005 228.767C309.176 126.543 325.826 89.8845 333.851 78.8702C334.762 77.6303 335.952 76.6213 337.326 75.9247C338.7 75.2282 340.219 74.8636 341.76 74.8604H544.549C546.062 74.8593 547.555 75.2089 548.909 75.8816C550.263 76.5542 551.442 77.5315 552.353 78.7363C553.263 79.9411 553.881 81.3404 554.156 82.8239C554.431 84.3073 554.357 85.8341 553.939 87.284C545.433 116.602 527.925 194.29 548.924 282.22C564.539 347.609 557.279 374.084 548.436 384.779Z" fill="#3F3D56"/>
<path d="M454.529 168.109H350.05C347.926 168.109 345.889 167.268 344.387 165.77C342.885 164.273 342.042 162.242 342.042 160.124C342.042 158.006 342.885 155.975 344.387 154.478C345.889 152.98 347.926 152.139 350.05 152.139H454.529C456.653 152.139 458.69 152.98 460.192 154.478C461.693 155.975 462.537 158.006 462.537 160.124C462.537 162.242 461.693 164.273 460.192 165.77C458.69 167.268 456.653 168.109 454.529 168.109Z" fill="#CCCCCC"/>
<path d="M454.529 202.502H350.05C347.926 202.502 345.889 201.661 344.387 200.164C342.885 198.666 342.042 196.635 342.042 194.517C342.042 192.4 342.885 190.369 344.387 188.871C345.889 187.374 347.926 186.532 350.05 186.532H454.529C456.653 186.532 458.69 187.374 460.192 188.871C461.693 190.369 462.537 192.4 462.537 194.517C462.537 196.635 461.693 198.666 460.192 200.164C458.69 201.661 456.653 202.502 454.529 202.502Z" fill="#CCCCCC"/>
<path d="M462.942 237.735H358.463C356.339 237.735 354.302 236.894 352.8 235.396C351.298 233.899 350.455 231.868 350.455 229.75C350.455 227.632 351.298 225.601 352.8 224.104C354.302 222.606 356.339 221.765 358.463 221.765H462.942C465.066 221.765 467.103 222.606 468.605 224.104C470.106 225.601 470.95 227.632 470.95 229.75C470.95 231.868 470.106 233.899 468.605 235.396C467.103 236.894 465.066 237.735 462.942 237.735Z" fill="#CCCCCC"/>
<path d="M468.831 274.645H364.352C362.228 274.645 360.191 273.804 358.689 272.306C357.187 270.809 356.344 268.778 356.344 266.66C356.344 264.542 357.187 262.511 358.689 261.014C360.191 259.516 362.228 258.675 364.352 258.675H468.831C470.955 258.675 472.992 259.516 474.494 261.014C475.996 262.511 476.839 264.542 476.839 266.66C476.839 268.778 475.996 270.809 474.494 272.306C472.992 273.804 470.955 274.645 468.831 274.645Z" fill="#CCCCCC"/>
<path d="M468.875 106.109H393.798C392.746 106.11 391.703 105.904 390.731 105.503C389.758 105.102 388.874 104.514 388.13 103.773C387.385 103.031 386.795 102.15 386.392 101.181C385.989 100.212 385.781 99.1728 385.781 98.1235C385.781 97.0742 385.989 96.0353 386.392 95.0659C386.795 94.0966 387.385 93.216 388.13 92.4744C388.874 91.7328 389.758 91.1448 390.731 90.744C391.703 90.3432 392.746 90.1375 393.798 90.1386H468.875C470.999 90.1386 473.036 90.9798 474.538 92.4773C476.04 93.9748 476.884 96.0058 476.884 98.1235C476.884 100.241 476.04 102.272 474.538 103.77C473.036 105.267 470.999 106.109 468.875 106.109Z" fill="#71EFA3"/>
<path d="M510.258 277.565C516.298 277.565 521.195 272.683 521.195 266.66C521.195 260.637 516.298 255.755 510.258 255.755C504.217 255.755 499.321 260.637 499.321 266.66C499.321 272.683 504.217 277.565 510.258 277.565Z" fill="#CCCCCC"/>
<path d="M473.879 310.716H369.4C367.276 310.716 365.239 309.875 363.737 308.377C362.235 306.88 361.392 304.849 361.392 302.731C361.392 300.613 362.235 298.582 363.737 297.085C365.239 295.587 367.276 294.746 369.4 294.746H473.879C476.003 294.746 478.04 295.587 479.542 297.085C481.044 298.582 481.887 300.613 481.887 302.731C481.887 304.849 481.044 306.88 479.542 308.377C478.04 309.875 476.003 310.716 473.879 310.716Z" fill="#CCCCCC"/>
<path d="M515.306 313.636C521.346 313.636 526.243 308.754 526.243 302.731C526.243 296.708 521.346 291.826 515.306 291.826C509.265 291.826 504.369 296.708 504.369 302.731C504.369 308.754 509.265 313.636 515.306 313.636Z" fill="#CCCCCC"/>
</g>
<defs>
<clipPath id="clip0">
<rect width="714" height="393.799" rx="36" fill="white"/>
</clipPath>
</defs>
</svg>
