<svg width="550" height="300" viewBox="0 0 589 321" fill="none" xmlns="http://www.w3.org/2000/svg">
<g clip-path="url(#clip0)">
<path d="M511.291 318.895C511.347 318.727 516.805 301.86 507.145 286.81L506.159 287.441C515.509 302.01 510.234 318.362 510.179 318.526L511.291 318.895Z" fill="#E4E4E4"/>
<path d="M500.238 288.974C500.446 289.96 500.847 290.895 501.417 291.726C501.987 292.557 502.715 293.268 503.56 293.818C504.405 294.368 505.35 294.747 506.342 294.932C507.333 295.117 508.352 295.105 509.339 294.898C510.325 294.69 511.262 294.29 512.094 293.72C512.926 293.151 513.638 292.424 514.189 291.58C514.739 290.736 515.118 289.791 515.304 288.801C515.489 287.811 515.477 286.794 515.269 285.808C514.394 281.662 506.973 271.345 502.822 272.219C498.671 273.094 499.363 284.829 500.238 288.974Z" fill="#E4E4E4"/>
<path d="M501.637 308.364C505.342 312.362 511.969 312.253 511.969 312.253C511.969 312.253 512.59 305.663 508.886 301.665C505.181 297.666 498.554 297.775 498.554 297.775C498.554 297.775 497.933 304.366 501.637 308.364Z" fill="#E4E4E4"/>
<path d="M557.784 320.065C557.917 319.668 570.797 279.864 548.001 244.346L545.674 245.836C567.74 280.218 555.29 318.807 555.162 319.193L557.784 320.065Z" fill="#E4E4E4"/>
<path d="M531.701 249.454C532.694 254.151 535.514 258.262 539.541 260.882C543.569 263.503 548.473 264.418 553.176 263.428C557.88 262.437 561.996 259.621 564.621 255.6C567.246 251.578 568.164 246.68 567.173 241.982C565.107 232.199 547.594 207.85 537.798 209.913C528.003 211.977 529.635 239.67 531.701 249.454Z" fill="#E4E4E4"/>
<path d="M535.003 295.212C543.746 304.647 559.385 304.391 559.385 304.391C559.385 304.391 560.851 288.837 552.109 279.402C543.366 269.967 527.727 270.223 527.727 270.223C527.727 270.223 526.261 285.776 535.003 295.212Z" fill="#E4E4E4"/>
<path d="M339.787 317.068L331.239 313.474L325.376 270.678H247.294L240.938 313.299L233.291 317.118C232.925 317.3 232.632 317.601 232.459 317.971C232.285 318.341 232.242 318.759 232.336 319.157C232.43 319.554 232.656 319.909 232.977 320.162C233.297 320.416 233.694 320.554 234.103 320.554H339.082C339.501 320.554 339.908 320.409 340.232 320.144C340.557 319.878 340.779 319.509 340.862 319.099C340.945 318.688 340.883 318.262 340.687 317.892C340.491 317.522 340.173 317.231 339.787 317.068Z" fill="#E6E6E6"/>
<path d="M478.544 276.372H94.9829C92.9705 276.368 91.042 275.566 89.6206 274.143C88.1992 272.72 87.4009 270.792 87.4009 268.782V214.762H486.126V268.782C486.126 270.792 485.327 272.72 483.906 274.143C482.485 275.566 480.556 276.368 478.544 276.372Z" fill="#CCCCCC"/>
<path d="M486.527 240.293H87.0508V9.14925C87.0536 6.72352 88.0196 4.39795 89.737 2.68273C91.4544 0.967515 93.7829 0.0027189 96.2116 0H477.366C479.794 0.00271731 482.123 0.967508 483.84 2.68273C485.558 4.39794 486.524 6.72351 486.527 9.14925V240.293Z" fill="#3F3D56"/>
<path d="M462.67 16.7759H110.909C109.036 16.7783 107.242 17.5226 105.918 18.8454C104.595 20.1682 103.851 21.9614 103.851 23.8313V216.462C103.851 218.332 104.595 220.126 105.918 221.448C107.242 222.771 109.036 223.515 110.909 223.518H462.67C464.542 223.514 466.336 222.77 467.659 221.447C468.983 220.125 469.727 218.332 469.728 216.462V23.8313C469.727 21.9617 468.983 20.169 467.659 18.8464C466.336 17.5238 464.542 16.7792 462.67 16.7759Z" fill="white"/>
<path d="M173.261 16.7759V223.518H110.909C109.036 223.515 107.242 222.771 105.918 221.448C104.595 220.126 103.851 218.332 103.851 216.462V23.8313C103.851 21.9614 104.595 20.1682 105.918 18.8454C107.242 17.5226 109.036 16.7783 110.909 16.7759H173.261Z" fill="#F0F0F0"/>
<path d="M121.821 121.215C121.119 121.056 120.391 121.052 119.687 121.204C118.984 121.356 118.322 121.66 117.749 122.095C117.176 122.53 116.705 123.085 116.37 123.721C116.035 124.358 115.844 125.06 115.81 125.778L99.0266 130.72L105.975 136.578L120.847 130.987C122.059 130.964 123.22 130.498 124.111 129.677C125.002 128.856 125.56 127.738 125.68 126.533C125.8 125.329 125.473 124.122 124.762 123.142C124.051 122.162 123.005 121.476 121.821 121.215H121.821Z" fill="#FFB6B6"/>
<path d="M54.0085 158.408C52.3492 158.406 50.7447 157.815 49.481 156.741C48.2173 155.667 47.3765 154.18 47.1086 152.545C46.8407 150.909 47.1631 149.232 48.0183 147.812C48.8735 146.392 50.2059 145.321 51.7779 144.791L85.7884 133.324L112.318 123.671L115.574 135.053L92.1535 150.467L55.4723 158.254C54.991 158.356 54.5004 158.408 54.0085 158.408Z" fill="#71EFA3"/>
<path d="M75.2918 315.207H80.0668L82.3389 296.81H75.2906L75.2918 315.207Z" fill="#FFB6B6"/>
<path d="M74.0736 313.65L83.4778 313.649H83.4782C85.0676 313.649 86.5919 314.28 87.7158 315.402C88.8397 316.525 89.4712 318.047 89.4713 319.635V319.829L74.0739 319.83L74.0736 313.65Z" fill="#2F2E41"/>
<path d="M38.6783 315.207H43.4533L45.7254 296.81H38.6777L38.6783 315.207Z" fill="#FFB6B6"/>
<path d="M37.4602 313.65L46.8644 313.649H46.8648C48.4542 313.649 49.9785 314.28 51.1024 315.402C52.2263 316.525 52.8578 318.047 52.8579 319.635V319.829L37.4605 319.83L37.4602 313.65Z" fill="#2F2E41"/>
<path d="M38.6309 204.862C36.4456 209.946 35.9673 215.6 37.2677 220.979L35.9044 312.233H46.3919L52.2636 262.049L62.0012 228.982L72.5178 254.657V308.17L82.6449 307.565L88.098 250.767L81.8659 210.308L38.6309 204.862Z" fill="#2F2E41"/>
<path d="M76.9971 133.864L68.0385 131.141L65.7015 126.473H54.1943L51.2899 131.53C51.2899 131.53 39.6047 135.809 39.2152 156.428C38.8257 177.046 37.2677 210.114 37.2677 210.114L83.3427 216.674L76.9971 133.864Z" fill="#71EFA3"/>
<path d="M90.2248 212.982C90.527 212.329 90.6823 211.619 90.6797 210.9C90.6772 210.181 90.5168 209.471 90.21 208.821C89.9031 208.17 89.4572 207.595 88.9037 207.136C88.3502 206.676 87.7025 206.343 87.0063 206.161L85.6557 188.737L78.474 194.306L80.8575 209.999C80.628 211.187 80.8429 212.418 81.4616 213.459C82.0803 214.5 83.0598 215.278 84.2145 215.646C85.3691 216.014 86.6187 215.945 87.7264 215.454C88.8342 214.963 89.7231 214.084 90.2248 212.982H90.2248Z" fill="#FFB6B6"/>
<path d="M77.9715 204.001L67.7456 177.916V140.461C67.7456 138.677 68.4284 136.961 69.6542 135.663C70.8801 134.366 72.5562 133.585 74.3394 133.482C76.1225 133.378 77.8779 133.959 79.246 135.106C80.6141 136.253 81.4915 137.879 81.6985 139.651L85.8573 175.262L89.795 203.187L77.9715 204.001Z" fill="#71EFA3"/>
<path d="M62.1553 120.417C68.5063 120.417 73.6548 115.275 73.6548 108.932C73.6548 102.588 68.5063 97.4462 62.1553 97.4462C55.8043 97.4462 50.6558 102.588 50.6558 108.932C50.6558 115.275 55.8043 120.417 62.1553 120.417Z" fill="#FFB9B9"/>
<path d="M62.9083 105.44C62.3703 106.13 61.6328 106.753 61.5143 107.619C61.4265 108.261 61.7073 108.896 61.7341 109.543C61.7362 110.196 61.4889 110.826 61.0424 111.304C60.596 111.781 59.984 112.071 59.3313 112.113C58.8766 111.542 58.2196 111.166 57.4959 111.065C57.1358 111.024 56.7721 111.1 56.4582 111.281C56.1444 111.462 55.897 111.739 55.7524 112.071C55.4109 113.034 56.2013 114.013 56.3284 115.027C56.3453 115.778 56.2238 116.524 55.97 117.231C55.6786 118.394 55.6007 119.625 55.0895 120.711C54.5783 121.796 53.4416 122.73 52.265 122.49C51.2755 122.288 50.606 121.331 50.3293 120.361C50.0526 119.391 50.065 118.362 49.8647 117.374C49.214 114.162 46.4457 111.782 45.3596 108.689C43.9679 104.727 45.6398 100.194 48.5212 97.1357C49.6861 95.7958 51.2068 94.8124 52.9076 94.2992C54.7032 93.8425 56.6017 94.1708 58.4442 93.9755C60.4146 93.7666 62.2668 92.9669 64.1818 92.4586C66.0967 91.9504 68.2357 91.7589 69.9764 92.7045C71.1905 93.364 72.0697 94.5012 73.2009 95.2942C74.4977 96.1965 76.0699 96.6168 77.6446 96.4821L75.7642 97.3031C76.484 97.9629 77.3532 98.4384 78.2974 98.6888C77.529 99.2972 76.5784 99.6304 75.5978 99.6353C75.8023 100.003 76.0802 100.326 76.4143 100.582C76.7484 100.839 77.1316 101.024 77.5403 101.127C76.1125 101.797 74.5965 102.483 73.0265 102.332C72.2574 102.258 71.5223 101.985 70.7626 101.844C69.1433 101.544 67.4803 101.855 65.8629 102.165C65.0135 102.328 63.9712 102.484 63.5422 103.299C63.1851 103.979 63.4583 104.735 62.9083 105.44Z" fill="#2F2E41"/>
<path d="M138.556 138.47C148.688 138.47 156.901 130.266 156.901 120.147C156.901 110.027 148.688 101.824 138.556 101.824C128.424 101.824 120.21 110.027 120.21 120.147C120.21 130.266 128.424 138.47 138.556 138.47Z" fill="#71EFA3"/>
<path d="M149.563 120.147H139.657V110.253H137.455V120.147H127.548V122.346H137.455V132.24H139.657V122.346H149.563V120.147Z" fill="white"/>
<path d="M294.778 40.9566C294.212 40.9572 293.67 41.1819 293.27 41.5815C292.87 41.9811 292.645 42.5228 292.644 43.0879V78.7732C292.645 79.3383 292.87 79.88 293.27 80.2796C293.67 80.6792 294.212 80.904 294.778 80.9047H438.813C439.379 80.904 439.921 80.6792 440.322 80.2796C440.722 79.88 440.947 79.3383 440.947 78.7732V43.0879C440.947 42.5228 440.722 41.9811 440.321 41.5815C439.921 41.1819 439.379 40.9572 438.813 40.9566H294.778Z" fill="white"/>
<path d="M294.778 40.9566C294.212 40.9572 293.67 41.1819 293.27 41.5815C292.87 41.9811 292.645 42.5228 292.644 43.0879V78.7732C292.645 79.3383 292.87 79.88 293.27 80.2796C293.67 80.6792 294.212 80.904 294.778 80.9047H438.813C439.379 80.904 439.921 80.6792 440.322 80.2796C440.722 79.88 440.947 79.3383 440.947 78.7732V43.0879C440.947 42.5228 440.722 41.9811 440.321 41.5815C439.921 41.1819 439.379 40.9572 438.813 40.9566H294.778Z" fill="#E6E6E6"/>
<path d="M295.044 78.5069H438.546V43.3544H295.044V78.5069Z" fill="white"/>
<path d="M311.36 53.4713C310.865 53.4713 310.39 53.6678 310.04 54.0175C309.69 54.3672 309.493 54.8416 309.493 55.3361C309.493 55.8307 309.69 56.3051 310.04 56.6548C310.39 57.0045 310.865 57.201 311.36 57.201H422.226C422.471 57.2011 422.714 57.153 422.94 57.0593C423.167 56.9657 423.373 56.8285 423.546 56.6554C423.72 56.4823 423.857 56.2767 423.951 56.0505C424.045 55.8243 424.094 55.5818 424.094 55.337C424.094 55.0921 424.046 54.8495 423.952 54.6233C423.858 54.397 423.721 54.1913 423.547 54.0181C423.374 53.8448 423.168 53.7074 422.942 53.6136C422.715 53.5198 422.473 53.4714 422.227 53.4713H311.36Z" fill="#E4E4E4"/>
<path d="M311.36 64.6603C310.866 64.6612 310.391 64.8581 310.042 65.2077C309.693 65.5573 309.496 66.0312 309.496 66.5252C309.496 67.0192 309.693 67.493 310.042 67.8426C310.391 68.1923 310.866 68.3891 311.36 68.39H422.226C422.721 68.3911 423.196 68.1957 423.547 67.8467C423.898 67.4978 424.096 67.0239 424.097 66.5293C424.098 66.0347 423.902 65.56 423.553 65.2095C423.204 64.859 422.729 64.6614 422.234 64.6603H311.36Z" fill="#E4E4E4"/>
<path d="M194.616 101.507C194.05 101.507 193.508 101.732 193.108 102.132C192.708 102.531 192.483 103.073 192.482 103.638V139.323C192.483 139.888 192.708 140.43 193.108 140.83C193.508 141.229 194.05 141.454 194.616 141.455H338.651C339.217 141.454 339.76 141.229 340.16 140.83C340.56 140.43 340.785 139.888 340.785 139.323V103.638C340.785 103.073 340.56 102.531 340.16 102.132C339.76 101.732 339.217 101.507 338.651 101.507H194.616Z" fill="white"/>
<path d="M194.616 101.507C194.05 101.507 193.508 101.732 193.108 102.132C192.708 102.531 192.483 103.073 192.482 103.638V139.323C192.483 139.888 192.708 140.43 193.108 140.83C193.508 141.229 194.05 141.454 194.616 141.455H338.651C339.217 141.454 339.76 141.229 340.16 140.83C340.56 140.43 340.785 139.888 340.785 139.323V103.638C340.785 103.073 340.56 102.531 340.16 102.132C339.76 101.732 339.217 101.507 338.651 101.507H194.616Z" fill="#E6E6E6"/>
<path d="M194.883 139.057H338.385V103.904H194.883V139.057Z" fill="white"/>
<path d="M211.198 114.021C210.703 114.021 210.228 114.218 209.878 114.568C209.528 114.917 209.331 115.392 209.331 115.886C209.331 116.381 209.528 116.855 209.878 117.205C210.228 117.555 210.703 117.751 211.198 117.751H322.064C322.309 117.751 322.552 117.703 322.779 117.609C323.005 117.516 323.211 117.378 323.384 117.205C323.558 117.032 323.696 116.827 323.789 116.601C323.883 116.374 323.932 116.132 323.932 115.887C323.932 115.642 323.884 115.4 323.79 115.173C323.696 114.947 323.559 114.741 323.386 114.568C323.212 114.395 323.007 114.257 322.78 114.164C322.554 114.07 322.311 114.021 322.066 114.021H211.198Z" fill="#E4E4E4"/>
<path d="M211.198 125.21C210.704 125.211 210.23 125.408 209.88 125.758C209.531 126.107 209.334 126.581 209.334 127.075C209.334 127.569 209.531 128.043 209.88 128.393C210.23 128.742 210.704 128.939 211.198 128.94H322.064C322.559 128.941 323.034 128.746 323.385 128.397C323.736 128.048 323.934 127.574 323.935 127.079C323.936 126.585 323.741 126.11 323.391 125.76C323.042 125.409 322.567 125.211 322.072 125.21H211.198Z" fill="#E4E4E4"/>
<path d="M370.184 197.283C370.826 197.212 371.444 197.002 371.995 196.667C372.547 196.332 373.018 195.88 373.375 195.344C373.733 194.807 373.969 194.199 374.065 193.562C374.162 192.924 374.118 192.274 373.936 191.655L386.701 182.549L379.093 179.623L368.138 188.719C367.118 189.094 366.271 189.829 365.758 190.786C365.245 191.742 365.101 192.853 365.353 193.909C365.605 194.964 366.236 195.891 367.127 196.513C368.017 197.135 369.105 197.409 370.184 197.283Z" fill="#FFB7B7"/>
<path d="M377.271 191.285L373.036 184.061L373.126 183.959L390.212 164.531L403.478 141.935L414.998 143.402L415.168 146.88L415.133 146.932L396.831 174.41L396.812 174.427L377.271 191.285Z" fill="#3F3D56"/>
<path d="M433.722 313.523L427.208 313.522L424.109 288.425L433.724 288.426L433.722 313.523Z" fill="#FFB7B7"/>
<path d="M435.384 319.83L414.378 319.829V319.564C414.378 317.398 415.24 315.321 416.773 313.79C418.306 312.258 420.386 311.398 422.554 311.398H422.555L435.384 311.398L435.384 319.83Z" fill="#2F2E41"/>
<path d="M377.656 313.31L371.319 311.799L374.14 286.669L383.492 288.899L377.656 313.31Z" fill="#FFB7B7"/>
<path d="M377.805 319.83L357.374 314.957L357.436 314.699C357.939 312.593 359.26 310.772 361.108 309.638C362.955 308.504 365.178 308.15 367.287 308.653L367.287 308.653L379.766 311.629L377.805 319.83Z" fill="#2F2E41"/>
<path d="M402.974 130.461V119.509C402.974 115.617 404.522 111.884 407.278 109.132C410.034 106.379 413.771 104.833 417.668 104.833C421.565 104.833 425.303 106.379 428.059 109.132C430.814 111.884 432.362 115.617 432.362 119.509V130.461C432.362 130.984 432.154 131.485 431.784 131.855C431.414 132.224 430.912 132.432 430.389 132.433H404.948C404.425 132.432 403.923 132.224 403.553 131.855C403.183 131.485 402.975 130.984 402.974 130.461Z" fill="#2F2E41"/>
<path d="M414.042 132.266C419.992 132.266 424.815 127.449 424.815 121.506C424.815 115.564 419.992 110.746 414.042 110.746C408.092 110.746 403.269 115.564 403.269 121.506C403.269 127.449 408.092 132.266 414.042 132.266Z" fill="#FFB7B7"/>
<path d="M399.498 120.385C399.501 117.307 400.727 114.356 402.906 112.18C405.085 110.004 408.04 108.779 411.122 108.776H413.315C416.397 108.779 419.351 110.004 421.53 112.18C423.709 114.356 424.935 117.307 424.938 120.385V120.604H420.304L418.723 116.183L418.407 120.604H416.011L415.214 118.374L415.054 120.604H399.498V120.385Z" fill="#2F2E41"/>
<path d="M420.326 178.297L392.896 177.254L391.362 159.331C390.18 156.05 390.16 153.233 391.305 150.959C392.29 149.091 393.944 147.663 395.938 146.96L401.94 139.72C402.712 138.789 403.682 138.041 404.779 137.53C405.876 137.02 407.073 136.759 408.283 136.767L423.877 136.873C424.254 136.647 426.533 135.49 431.03 137.437C435.908 139.549 434.775 146.883 434.763 146.957L434.752 147.026L434.698 147.071L424.325 155.796L420.326 178.297Z" fill="#3F3D56"/>
<path d="M393.114 175.328L380.139 198.955L370.302 306.446L381.417 309.836L401.09 225.75L423.922 307.45L437.245 307.783L428.174 213.501L420.246 176.998L393.114 175.328Z" fill="#2F2E41"/>
<path d="M309.14 157.815C308.602 157.641 308.017 157.688 307.513 157.945C307.009 158.202 306.627 158.648 306.452 159.185L295.435 193.131C295.261 193.669 295.308 194.254 295.565 194.757C295.822 195.26 296.268 195.641 296.806 195.816L433.823 240.178C434.361 240.352 434.946 240.305 435.45 240.048C435.954 239.791 436.336 239.345 436.511 238.808L447.528 204.861C447.702 204.324 447.655 203.739 447.398 203.236C447.141 202.732 446.694 202.352 446.156 202.177L309.14 157.815Z" fill="white"/>
<path d="M309.14 157.815C308.602 157.641 308.017 157.688 307.513 157.945C307.009 158.202 306.627 158.648 306.452 159.185L295.435 193.131C295.261 193.669 295.308 194.254 295.565 194.757C295.822 195.26 296.268 195.641 296.806 195.816L433.823 240.178C434.361 240.352 434.946 240.305 435.45 240.048C435.954 239.791 436.336 239.345 436.511 238.808L447.528 204.861C447.702 204.324 447.655 203.739 447.398 203.236C447.141 202.732 446.694 202.352 446.156 202.177L309.14 157.815Z" fill="#E6E6E6"/>
<path d="M297.801 193.617L434.309 237.815L445.162 204.375L308.654 160.178L297.801 193.617Z" fill="white"/>
<path d="M321.051 174.827C320.58 174.675 320.067 174.716 319.627 174.94C319.186 175.165 318.852 175.556 318.7 176.026C318.547 176.497 318.588 177.008 318.813 177.449C319.037 177.889 319.428 178.222 319.899 178.375L425.362 212.521C425.595 212.597 425.841 212.626 426.086 212.607C426.33 212.588 426.569 212.521 426.788 212.409C427.006 212.298 427.201 212.145 427.36 211.959C427.519 211.772 427.64 211.556 427.716 211.323C427.792 211.09 427.821 210.845 427.802 210.6C427.782 210.356 427.715 210.118 427.603 209.9C427.492 209.681 427.338 209.487 427.151 209.328C426.965 209.169 426.748 209.049 426.515 208.973L426.513 208.973L321.051 174.827Z" fill="#71EFA3"/>
<path d="M317.596 185.471C317.125 185.319 316.614 185.361 316.173 185.586C315.733 185.811 315.4 186.201 315.248 186.671C315.095 187.141 315.136 187.652 315.36 188.092C315.584 188.532 315.974 188.865 316.445 189.019L421.907 223.164C422.378 223.318 422.89 223.278 423.332 223.055C423.774 222.831 424.108 222.441 424.262 221.971C424.416 221.501 424.376 220.989 424.152 220.548C423.928 220.107 423.537 219.773 423.067 219.619L423.059 219.616L317.596 185.471Z" fill="#71EFA3"/>
<path d="M427.779 213.578C428.259 213.148 428.639 212.617 428.892 212.024C429.145 211.431 429.264 210.79 429.242 210.146C429.22 209.501 429.057 208.87 428.764 208.296C428.471 207.721 428.055 207.218 427.546 206.822L432.612 191.993L424.722 194.04L421.121 207.808C420.511 208.706 420.251 209.796 420.392 210.872C420.532 211.948 421.063 212.935 421.884 213.646C422.705 214.358 423.758 214.744 424.844 214.731C425.931 214.718 426.975 214.308 427.779 213.578V213.578Z" fill="#FFB7B7"/>
<path d="M430.042 204.58L422.387 201.171L424.959 175.304L422.565 149.22L432.784 143.711L434.95 146.439L434.953 146.501L436.1 179.484L436.094 179.509L430.042 204.58Z" fill="#3F3D56"/>
<path d="M588.106 321H187.782C187.579 321.004 187.381 320.942 187.218 320.822C187.055 320.702 186.936 320.531 186.88 320.337C186.845 320.204 186.841 320.066 186.868 319.932C186.896 319.798 186.953 319.671 187.037 319.563C187.12 319.455 187.228 319.367 187.351 319.306C187.473 319.246 187.609 319.214 187.746 319.214H588.033C588.246 319.207 588.456 319.272 588.628 319.398C588.8 319.525 588.924 319.706 588.979 319.913C589.008 320.043 589.008 320.179 588.977 320.309C588.947 320.439 588.887 320.561 588.804 320.665C588.72 320.77 588.614 320.854 588.493 320.912C588.372 320.97 588.24 321 588.106 321Z" fill="#CCCCCC"/>
<path d="M134.742 321H0.930247C0.727773 321.004 0.529563 320.942 0.366501 320.822C0.20344 320.702 0.084683 320.531 0.0287365 320.337C-0.00619157 320.204 -0.010257 320.066 0.0168493 319.932C0.0439556 319.798 0.101509 319.671 0.185088 319.563C0.268668 319.455 0.376041 319.367 0.498945 319.306C0.621849 319.246 0.75701 319.214 0.894023 319.214H134.669C134.882 319.207 135.092 319.272 135.264 319.398C135.436 319.525 135.56 319.706 135.615 319.913C135.644 320.043 135.644 320.179 135.613 320.309C135.583 320.439 135.523 320.561 135.44 320.665C135.356 320.77 135.25 320.854 135.129 320.912C135.008 320.97 134.876 321 134.742 321Z" fill="#CCCCCC"/>
</g>
<defs>
<clipPath id="clip0">
<rect width="589" height="321" fill="white"/>
</clipPath>
</defs>
</svg>
